<?xml version="1.0" standalone="no"?>
<!DOCTYPE svg PUBLIC "-//W3C//DTD SVG 1.1//EN" "http://www.w3.org/Graphics/SVG/1.1/DTD/svg11.dtd" >
<svg xmlns="http://www.w3.org/2000/svg">
<metadata>Generated by IcoMoon</metadata>
<defs>
<font id="icomoon" horiz-adv-x="1024">
<font-face units-per-em="1024" ascent="960" descent="-64" />
<missing-glyph horiz-adv-x="1024" />
<glyph unicode="&#x20;" horiz-adv-x="512" d="" />
<glyph unicode="&#xe900;" glyph-name="Backend" d="M74.4 647.2c-52-15.2-54.4-25.6-54.4-268.8v-218.4l22.4-21.6c20.8-21.6 25.6-22.4 113.6-24.8 50.4-1.6 92-5.6 92-8.8 0-4-4-17.6-8.8-32-8-22.4-12-24.8-44-24.8-46.4 0-67.2-20-67.2-64v-32h480v32c0 44-20.8 64-67.2 64-32 0-36 2.4-44 24.8-4.8 14.4-8.8 28-8.8 32 0 3.2 40.8 7.2 91.2 8.8 84 2.4 93.6 4 112 21.6 11.2 10.4 23.2 31.2 25.6 46.4l4.8 26.4h124c120 0 124 0.8 142.4 20l20 19.2v204.8c0 198.4-0.8 204-16 204s-16-5.6-16-208v-208h-128c-122.4 0-128 0.8-128 16s5.6 16 112 16h112v288h-223.2l-8.8 32c-16 60-14.4 60-332 61.6-160.8 0.8-291.2-1.6-305.6-6.4zM680 608.8c4.8-9.6 8-80.8 8-176v-160.8h-640v160.8c0 95.2 3.2 166.4 8 176 8 14.4 20 15.2 312 15.2s304-0.8 312-15.2zM912 416v-112h-192v224h192v-112zM688 206.4c0-64.8 12-62.4-318.4-62.4-332 0-321.6-1.6-321.6 61.6v34.4h640v-33.6zM463.2 87.2c4.8-14.4 8.8-28.8 8.8-32 0-4-46.4-7.2-104-7.2s-104 3.2-104 7.2c0 3.2 4 17.6 8.8 32l8.8 24.8h172.8l8.8-24.8zM576 0c0-15.2-5.6-16-208-16s-208 0.8-208 16c0 15.2 5.6 16 208 16s208-0.8 208-16zM114.4 584c-28.8-12-34.4-34.4-34.4-140 0-96 0.8-101.6 20-120 19.2-20 19.2-20 188-20h168.8l20 20c20 20 20 22.4 17.6 128-1.6 90.4-4.8 109.6-16.8 121.6-12.8 12.8-32.8 14.4-180 16-91.2 0.8-173.6-1.6-183.2-5.6zM464 448v-112h-352v224h352v-112zM277.6 456.8c-28.8-81.6-32-104.8-13.6-104.8 9.6 0 65.6 175.2 59.2 184.8-9.6 16-16.8 3.2-45.6-80zM176 484l-35.2-36 35.2-36c27.2-28 37.6-33.6 45.6-26.4 8.8 7.2 6.4 13.6-15.2 36l-25.6 26.4 25.6 26.4c21.6 22.4 24 28.8 15.2 36-8 7.2-18.4 1.6-45.6-26.4zM353.6 510.4c-7.2-7.2-4-15.2 16-36l25.6-26.4-25.6-26.4c-21.6-22.4-24-28.8-15.2-36 8-7.2 18.4-1.6 45.6 26.4l35.2 36-36 36c-28 28.8-37.6 34.4-45.6 26.4zM528 576c0-14.4 5.6-16 64-16s64 1.6 64 16c0 14.4-5.6 16-64 16s-64-1.6-64-16zM528 512c0-14.4 5.6-16 64-16s64 1.6 64 16c0 14.4-5.6 16-64 16s-64-1.6-64-16zM528 448c0-14.4 5.6-16 64-16s64 1.6 64 16c0 14.4-5.6 16-64 16s-64-1.6-64-16zM528 384c0-14.4 5.6-16 64-16s64 1.6 64 16c0 14.4-5.6 16-64 16s-64-1.6-64-16zM560 320c0-10.4 5.6-16 16-16s16 5.6 16 16c0 10.4-5.6 16-16 16s-16-5.6-16-16zM624 320c0-10.4 5.6-16 16-16s16 5.6 16 16c0 10.4-5.6 16-16 16s-16-5.6-16-16zM288 192c0-10.4 5.6-16 16-16s16 5.6 16 16c0 10.4-5.6 16-16 16s-16-5.6-16-16zM352 192c0-10.4 5.6-16 16-16s16 5.6 16 16c0 10.4-5.6 16-16 16s-16-5.6-16-16zM416 192c0-10.4 5.6-16 16-16s16 5.6 16 16c0 10.4-5.6 16-16 16s-16-5.6-16-16zM752 608c0-15.2 5.6-16 96-16s96 0.8 96 16c0 15.2-5.6 16-96 16s-96-0.8-96-16z" />
<glyph unicode="&#xe901;" glyph-name="Contact" d="M107.2 951.2c-35.2-10.4-89.6-66.4-99.2-104-5.6-20-8-166.4-6.4-417.6l2.4-386.4 20-29.6c11.2-16.8 34.4-40 51.2-52l31.2-21.6h811.2l31.2 21.6c16.8 12 40 35.2 51.2 52l20 28.8 2.4 270.4c2.4 239.2 0.8 270.4-10.4 282.4-16.8 16-39.2 16.8-55.2 0-11.2-10.4-12.8-45.6-12.8-264.8 0-222.4-1.6-254.4-13.6-275.2-21.6-36-31.2-33.6-42.4 11.2-24 98.4-92 189.6-178.4 240.8l-52.8 30.4 22.4 33.6c29.6 44 40.8 78.4 40.8 128-0.8 126.4-122.4 223.2-248 196-144.8-31.2-212.8-206.4-124.8-322.4l26.4-33.6-44.8-23.2c-88-46.4-168-148.8-192.8-249.6-12-45.6-22.4-48-43.2-8-12.8 23.2-13.6 61.6-11.2 399.2l2.4 374.4 22.4 21.6 21.6 22.4 264.8 4c222.4 3.2 264.8 5.6 271.2 16 11.2 17.6 9.6 37.6-4.8 51.2-10.4 11.2-45.6 12.8-269.6 12-141.6 0-268.8-4-282.4-8zM568 606.4c45.6-24 65.6-52 70.4-100.8 14.4-153.6-202.4-190.4-247.2-42.4-22.4 74.4 41.6 156 124.8 160 9.6 0.8 32.8-7.2 52-16.8zM644 252c83.2-40 157.6-133.6 165.6-208l2.4-24h-600l2.4 24c9.6 88 93.6 183.2 196 220.8 63.2 24 169.6 17.6 233.6-12.8zM804.8 942.4c-8.8-12-12.8-36.8-12.8-76v-58.4h-62.4c-68.8 0-81.6-6.4-81.6-41.6 0-29.6 19.2-38.4 87.2-38.4h56.8v-56.8c0-68 8.8-87.2 38.4-87.2 35.2 0 41.6 12.8 41.6 81.6v62.4h58.4c62.4 0 93.6 12.8 93.6 40 0 30.4-21.6 40-88.8 40h-63.2v63.2c0 47.2-3.2 67.2-12.8 76-17.6 17.6-40 16-54.4-4.8z" />
<glyph unicode="&#xe902;" glyph-name="Xd" d="M124 898.4c-35.2-18.4-59.2-42.4-76.8-76-14.4-28-15.2-51.2-15.2-374.4s0.8-346.4 15.2-374.4c17.6-34.4 42.4-58.4 78.4-76.8 22.4-11.2 69.6-12.8 386.4-12.8 338.4 0 362.4 0.8 390.4 15.2 34.4 17.6 58.4 42.4 76.8 78.4 11.2 22.4 12.8 68.8 12.8 370.4s-1.6 348-12.8 370.4c-18.4 36-42.4 60.8-76.8 78.4-28 14.4-51.2 15.2-392 15.2-314.4-0.8-365.6-2.4-386.4-13.6zM840 456.8c0-244.8 8.8-219.2-76-232.8-100-16-169.6 23.2-187.2 104.8-13.6 63.2-2.4 110.4 38.4 153.6 29.6 32.8 61.6 47.2 106.4 48.8l38.4 0.8v140h80v-215.2zM312 572c50.4-96.8 43.2-97.6 100 13.6l36.8 70.4h36.8c43.2 0 44.8 6.4-25.6-112.8-28.8-48.8-52-92-52-96 0-4.8 24.8-50.4 56-102.4 75.2-128 73.6-120.8 25.6-120.8h-40.8l-45.6 84c-25.6 46.4-48 84-50.4 84s-24.8-36.8-48.8-82.4l-44-81.6-37.6-2.4c-21.6-1.6-38.4 0-38.4 3.2 0 4 27.2 52 60.8 108.8l60.8 102.4-50.4 89.6c-27.2 49.6-55.2 98.4-61.6 108.8-11.2 17.6-11.2 17.6 31.2 17.6h43.2l44-84zM678.4 464c-28.8-22.4-40.8-57.6-36.8-105.6 5.6-53.6 37.6-86.4 86.4-86.4h32v208h-31.2c-18.4 0-38.4-6.4-50.4-16z" />
<glyph unicode="&#xe903;" glyph-name="Html" d="M59.2 906.4c3.2-30.4 17.6-232 32.8-449.6s28.8-396 29.6-397.6c6.4-4.8 380.8-123.2 392-123.2s382.4 118.4 388.8 124c1.6 0.8 65.6 872 65.6 894.4 0 3.2-205.6 5.6-456.8 5.6h-456.8l4.8-53.6zM796.8 778.4c-2.4-16.8-4.8-42.4-4.8-56v-26.4h-446.4l3.2-61.6c2.4-34.4 5.6-70.4 8-80l3.2-18.4h416v-29.6c0-40-16-271.2-20.8-304-4-24.8-5.6-25.6-123.2-64.8l-120-40-119.2 39.2c-132.8 44.8-128.8 40.8-128.8 124v35.2h56c52.8 0 56-0.8 56-18.4 0-16 8.8-20.8 68-40.8l68-21.6 134.4 43.2 4.8 40.8c2.4 22.4 4.8 57.6 4.8 79.2v37.6h-400l-3.2 18.4c-2.4 9.6-8 80.8-12.8 157.6s-10.4 156.8-12.8 178.4l-4.8 37.6h580l-5.6-29.6z" />
<glyph unicode="&#xe904;" glyph-name="Photoshop" d="M124.8 944c-40-12-81.6-47.2-104-87.2l-20.8-39.2v-739.2l20.8-38.4c11.2-20.8 31.2-45.6 44-55.2 53.6-40 64.8-40.8 446.4-40.8 395.2 0 406.4 0.8 456 49.6 58.4 57.6 56.8 44 56.8 455.2v368.8l-20.8 39.2c-23.2 41.6-64 74.4-108 87.2-33.6 9.6-737.6 9.6-770.4 0zM460.8 672.8c68.8-31.2 103.2-103.2 84-174.4-19.2-69.6-68-102.4-168.8-111.2l-56-5.6v-133.6h-88v440h98.4c77.6 0 104-3.2 130.4-15.2zM803.2 576c18.4-6.4 20.8-12 20.8-44 0-35.2-0.8-36.8-17.6-30.4-10.4 3.2-40 6.4-66.4 6.4-44 0-48-1.6-50.4-18.4-2.4-15.2 5.6-21.6 56.8-44.8 71.2-32.8 93.6-57.6 93.6-104.8 0-38.4-20-69.6-57.6-88.8-28.8-14.4-125.6-16.8-160.8-4-19.2 8-21.6 12-21.6 48v40l30.4-12.8c39.2-16.8 112-17.6 121.6-2.4 12.8 20 5.6 26.4-60.8 60-51.2 25.6-65.6 37.6-77.6 61.6-24 49.6 0 107.2 53.6 131.2 28.8 12.8 107.2 14.4 136 3.2zM330.4 611.2c-7.2-3.2-10.4-26.4-10.4-76.8v-72l52.8 3.2c46.4 3.2 56 6.4 72 25.6 29.6 34.4 21.6 90.4-16.8 107.2-22.4 10.4-84.8 18.4-97.6 12.8z" />
<glyph unicode="&#xe905;" glyph-name="Css" d="M64 930.4c0.8-45.6 76.8-889.6 80.8-894.4 6.4-6.4 350.4-100 367.2-100s360.8 93.6 367.2 100c4 4 80 848 80.8 894.4v29.6h-896v-29.6zM789.6 738.4c-2.4-16.8-14.4-144-26.4-282.4s-22.4-252.8-24-254.4c-0.8-1.6-52-16.8-114.4-34.4l-112.8-31.2-112.8 31.2c-62.4 17.6-114.4 32.8-115.2 34.4-1.6 1.6-5.6 40.8-8.8 88.8l-5.6 85.6h106.4v-31.2c0-58.4 8-67.2 73.6-84 57.6-14.4 61.6-14.4 121.6 0 36 8 64.8 20 68.8 26.4 3.2 7.2 8.8 44 12 83.2l5.6 69.6h-392.8l-4 26.4c-2.4 13.6-5.6 37.6-7.2 52l-3.2 25.6h421.6v46.4c0 24.8 2.4 53.6 4.8 64l4.8 17.6h-439.2l-5.6 36.8c-2.4 20.8-4.8 42.4-4.8 48 0 9.6 49.6 11.2 280.8 11.2h281.6l-4.8-29.6z" />
<glyph unicode="&#xe906;" glyph-name="Figma" d="M447 957c-92.4-12-177-47.4-251-104.6-23.4-18.2-63.2-57.4-82.6-81.4-55.2-68.4-91.8-149.2-107.4-237.2-5.6-31.2-7.8-106.2-4.2-140.4 8.6-79.8 36.4-158 79.6-224.4 19.6-30 36.8-51.4 63.6-78.8 83.8-86 189.6-138 310-152 26.8-3.2 92-2.6 121 0.8 149.6 18.6 283.2 102.4 366.6 230 42 64.2 68.8 138 78.4 215 4 32.4 4 95.4 0 128-18.4 148.4-102 282.4-228 365.2-65.8 43.2-139 70-217 79.8-30.4 3.6-100.2 3.6-129 0zM653.2 809.8c38.4-7 75.2-33.2 94.2-67.2 11.6-20.8 16.8-41.6 16.8-66.6 0-25.2-3.2-39-14.6-62-6.8-14-11.6-20.2-26.6-35.2l-18.6-18.4 5-2.6c9-4.8 31.8-31.2 39.2-45.2 21.2-40.2 21.2-88.8 0-129-9.2-17.6-28-38-45.8-49.6-47-30.8-113.8-28.8-157.4 4.6-5.2 4.2-9.8 7.4-10.2 7.4-0.6 0-1.2-34-1.6-75.4l-0.6-75.6-6.2-17.2c-12.6-35-37.2-63-69.8-78.8-40.4-19.8-81.8-19.8-122 0-47.6 23.2-75.6 68.8-75.2 121.8 0 24.4 3.4 38.6 14.6 61.2 6.8 14 11.6 20.2 26.6 35.2l18.4 18.2-7 4.6c-20.4 14-42.4 47.4-49.4 75-4.2 15.8-4.2 50.2 0 66 7 27.6 29 61 49.4 75l7 4.6-18.4 18.2c-15 15-19.8 21.2-26.6 35.2-11.4 23-14.6 36.8-14.6 62-0.2 37.4 12.8 69 39 95.2 20 19.8 41.8 32 68.2 37.8 15.6 3.4 267.8 4.2 286.2 0.8zM382 766.6c-8.6-1.2-28.6-9-36-13.6-48.8-31-56.2-100.8-15.4-141.4 23.8-23.8 38.4-27.6 108-27.6h51.4v184l-51.4-0.2c-28.4-0.2-53.8-0.8-56.6-1.2zM534 676v-92.2l56.6 0.6c63.8 1 68.2 1.8 89.4 16 47.2 31.4 53.4 100.6 12.8 140.4-10.2 10-20.8 16.6-34.6 21.8-10.2 3.8-16.6 4.2-67.6 5l-56.6 0.8v-92.4zM375 537.2c-23.8-6-42.4-18.8-55-37.6-37-55.4-6-129.4 59.2-141.4 6.4-1.2 33.8-2.2 61.2-2.2h49.6v184l-52.4-0.2c-35 0-56-1-62.6-2.6zM608.2 537.8c-46.4-9-80.2-57.2-72.6-103.2 8.4-50.6 55.6-84.8 105.8-77 67.4 10.6 100.4 85.4 62.6 142-20.4 30.4-58.4 45.6-95.8 38.2zM372 308.4c-58.4-15.2-86-82.6-55.4-134.8 12.6-21.4 39.2-39.2 65.6-43.6 47.2-8 95.6 25.8 105.6 73.6 1.2 6 2.2 31.6 2.2 59.4v49l-52.4-0.2c-42.8 0-55-0.6-65.6-3.4z" />
<glyph unicode="&#xe907;" glyph-name="Github" d="M512 857.6c-226.202 0-409.6-183.398-409.6-409.6 0-191.932 132.164-352.529 310.34-396.971-1.911 5.53-3.14 11.947-3.14 19.9v70.007c-16.623 0-44.476 0-51.473 0-28.023 0-52.941 12.049-65.024 34.441-13.414 24.883-15.735 62.942-48.981 86.221-9.865 7.748-2.355 16.589 9.011 15.394 20.992-5.939 38.4-20.343 54.784-41.711 16.316-21.402 23.996-26.249 54.477-26.249 14.78 0 36.898 0.853 57.719 4.13 11.196 28.433 30.549 54.613 54.204 66.97-136.397 14.029-201.489 81.886-201.489 174.012 0 39.663 16.896 78.029 45.602 110.353-9.421 32.085-21.265 97.519 3.618 122.436 61.372 0 98.475-39.799 107.383-50.551 30.583 10.479 64.171 16.418 99.465 16.418 35.362 0 69.086-5.939 99.738-16.486 8.806 10.684 45.943 50.62 107.452 50.62 24.986-24.951 13.005-90.658 3.482-122.675 28.535-32.256 45.329-70.519 45.329-110.114 0-92.058-64.99-159.881-201.182-173.978 37.478-19.558 64.819-74.513 64.819-115.917v-93.321c0-3.55-0.785-6.11-1.195-9.148 159.607 55.945 274.261 207.497 274.261 386.219 0 226.202-183.398 409.6-409.6 409.6z" />
<glyph unicode="&#xe908;" glyph-name="External-link" d="M672 872c-13.6 0-24-10.4-24-24s10.4-24 24-24h182.406l-371.203-371.203c-9.6-9.6-9.6-24.794 0-33.594 4.8-4.8 11.197-7.203 16.797-7.203s11.997 2.403 16.797 7.203l371.203 371.203v-182.406c0-13.6 10.4-24 24-24s24 10.4 24 24v240c0 13.6-10.4 24-24 24h-240zM192 712c-57.6 0-104-46.4-104-104v-480c0-57.6 46.4-104 104-104h480c57.6 0 104 46.4 104 104v360c0 13.6-10.4 24-24 24s-24-10.4-24-24v-360c0-31.2-24.8-56-56-56h-480c-31.2 0-56 24.8-56 56v480c0 31.2 24.8 56 56 56h360c13.6 0 24 10.4 24 24s-10.4 24-24 24h-360z" />
<glyph unicode="&#xe909;" glyph-name="Instagram" d="M272.213 915.499c-110.805-10.923-199.936-92.117-224.725-204.672l-3.968-17.92v-489.813l3.968-17.92c22.912-104.064 97.621-178.773 201.685-201.685l17.92-3.968h489.813l17.92 3.968c52.224 11.477 93.099 33.28 129.493 69.035 37.163 36.48 60.459 79.275 72.192 132.651l3.968 17.92v489.813l-3.968 17.92c-11.477 52.224-33.28 93.099-69.035 129.493-40.601 41.97-95.652 69.742-157.115 75.279l-0.965 0.070c-19.797 1.92-457.557 1.792-477.184-0.171zM751.147 829.525c62.677-9.472 115.413-54.016 136.192-115.072 8.576-25.259 8.661-27.52 8.661-266.453 0-239.019-0.085-241.323-8.704-266.453-20.267-59.179-68.309-101.675-128.981-114.005-16.981-3.456-21.632-3.541-246.315-3.541s-229.333 0.085-246.315 3.541c-70.212 14.22-124.108 70.173-135.087 140.353l-0.123 0.959c-3.669 24.405-3.669 453.888 0 478.293 10.923 72.405 68.992 131.029 140.8 142.251 22.528 3.499 456.661 3.627 479.872 0.128zM727.125 722.261c-8.363-2.688-18.304-13.227-20.693-22.016-1.067-4.053-1.963-11.947-1.963-17.579 0-15.061 2.987-23.936 10.624-31.573 7.509-7.509 16.299-10.539 30.976-10.709 28.501-0.256 43.136 14.507 42.88 43.179-0.256 27.733-14.080 41.045-42.283 40.747-0.003 0-0.006 0-0.009 0-6.918 0-13.661-0.746-20.154-2.162l0.622 0.114zM492.373 661.888c-28.8-3.499-45.44-8.405-71.68-21.077-52.089-25.092-91.479-69.612-109.235-123.918l-0.418-1.479c-7.936-23.979-9.813-36.608-9.771-65.707 0.085-28.331 2.475-43.733 10.581-68.181 17.109-51.584 57.728-98.347 106.155-122.197 27.917-14.22 60.884-22.552 95.797-22.552 49.527 0 95.138 16.767 131.466 44.933l-0.49-0.365c13.227 10.197 35.669 33.877 44.672 47.104 14.549 21.461 27.307 50.987 33.536 77.739 4.48 19.115 4.48 65.579 0 86.187-9.557 43.776-27.008 75.691-58.923 107.733-34.048 34.133-71.637 53.248-118.827 60.331-9.927 1.44-21.39 2.262-33.045 2.262-6.976 0-13.883-0.295-20.71-0.872l0.891 0.061zM549.504 572.544c93.141-26.368 123.136-145.707 53.803-213.931-23.061-22.547-54.647-36.458-89.482-36.458-16.040 0-31.391 2.949-45.541 8.335l0.879-0.294c-51.797 18.859-86.229 71.851-82.773 127.189 1.195 18.603 4.011 29.611 11.904 46.251 14.507 30.464 35.328 50.517 66.773 64.256 23.979 10.453 57.515 12.288 84.437 4.651z" />
<glyph unicode="&#xe90a;" glyph-name="Linkedin" d="M149.291 915.627c-48.641-8.886-87.339-43.815-101.514-89.531l-0.246-0.922c-5.76-18.517-5.76-53.163 0-71.68 13.117-41.864 45.432-74.179 86.363-87.043l0.933-0.253c18.517-5.76 53.163-5.76 71.68 0 41.864 13.117 74.179 45.432 87.043 86.363l0.253 0.933c5.76 18.517 5.76 53.163 0 71.68-13.013 41.856-45.909 74.795-86.4 86.656-15.403 4.523-43.904 6.357-58.112 3.797zM183.893 829.397c16.128-4.779 29.44-22.912 29.44-40.107 0-14.080-9.216-29.653-22.016-37.163-6.656-3.883-9.813-4.608-20.651-4.608s-13.995 0.725-20.651 4.608c-24.789 14.592-29.141 46.848-9.045 66.944 11.904 11.904 26.112 15.317 42.923 10.325zM663.040 660.352c-35.2-3.371-55.040-7.552-81.92-17.237-91.392-32.896-163.115-111.189-187.051-204.245-9.131-35.456-8.832-29.013-9.557-212.267-0.469-115.371-0.085-173.227 1.109-177.664 2.645-9.813 8.661-17.707 17.237-22.485l7.595-4.267 97.749-0.469c63.189-0.341 100.053 0.128 104.277 1.28 9.678 2.531 17.591 8.745 22.307 17.018l0.093 0.177 4.267 7.595 0.853 162.987c0.939 182.613-0.043 169.088 13.696 182.485 7.211 6.955 19.456 12.075 28.971 12.075 10.112 0 21.931-5.12 29.739-12.928 13.568-13.568 12.928-4.608 12.928-181.504 0-99.456 0.64-158.549 1.749-162.475 2.619-9.493 8.778-17.237 16.932-21.88l0.177-0.093 7.595-4.267 97.749-0.469c63.189-0.341 100.053 0.128 104.277 1.28 9.678 2.531 17.591 8.745 22.307 17.018l0.093 0.177 4.267 7.595v171.52c0 180.437-0.085 182.571-7.851 214.187-28.629 116.352-125.952 205.952-242.944 223.659-16.043 2.432-54.997 4.309-66.645 3.2zM68.864 616.235c-9.351-2.542-16.968-8.642-21.456-16.719l-0.090-0.177-3.797-7.125-0.427-268.544c-0.299-176.853 0.128-270.72 1.237-274.944 2.562-9.627 8.77-17.49 17.017-22.179l0.177-0.093 7.595-4.267 97.749-0.469c63.189-0.341 100.053 0.128 104.277 1.28 9.678 2.531 17.591 8.745 22.307 17.018l0.093 0.177 4.267 7.595v544.427l-3.797 7.125c-4.523 8.405-11.477 13.739-22.187 16.981-11.051 3.328-192.299 3.243-202.965-0.085zM706.219 574.165c9.088-0.981 22.315-3.285 29.355-5.077 75.257-20.177 133.338-78.258 153.17-152.011l0.344-1.504c6.187-24.235 6.912-42.453 6.912-177.408v-131.499h-85.205l-1.024 280.747-3.968 11.947c-14.037 41.941-45.867 73.6-86.4 85.973-11.648 3.541-17.195 4.181-36.736 4.181s-25.088-0.64-36.736-4.181c-40.533-12.373-72.363-44.032-86.4-85.973l-3.968-11.947-1.024-280.747h-85.205v131.499c0 81.323 0.683 137.771 1.835 148.053 11.995 106.937 101.908 189.307 211.060 189.307 8.453 0 16.791-0.494 24.986-1.455l-0.995 0.095zM213.333 320v-213.333h-85.333v426.667h85.333v-213.333z" />
<glyph unicode="&#xe90b;" glyph-name="Twitter" d="M657.92 863.328c-88.576-4.64-170.336-56.512-211.776-134.432-17.28-32.448-29.6-77.344-29.696-108.096-0.032-12.608 0.736-12.384-20.416-6.432-102.464 28.832-191.232 85.728-262.208 168.128-8.48 9.856-17.984 19.648-21.12 21.76-9.6 6.496-22.048 4.448-33.856-5.504-11.040-9.312-26.56-46.816-32.8-79.2-10.080-52.448-4.224-97.632 19.872-153.12 0.448-1.056-1.344-2.336-4-2.88-6.848-1.376-13.408-7.008-18.752-16.192-4.256-7.264-4.608-9.216-4.352-24.704 1.056-61.312 22.944-114.688 64.992-158.624l10.944-11.424-4.48-8.96c-5.696-11.424-5.696-20 0-35.904 19.488-54.528 60.928-102.272 111.36-128.32 8.608-4.448 15.264-8.768 14.784-9.568-0.512-0.768-6.848-3.936-14.112-6.976-61.728-25.888-116.672-35.328-177.12-30.4-23.936 1.952-26.912 1.888-32.352-0.704-9.92-4.736-12.832-11.456-12.832-29.728 0-15.648 0.032-15.712 5.824-21.312 7.936-7.648 36.128-24.992 63.168-38.848 87.424-44.768 190.976-66.080 292.416-60.128 68.864 4.032 119.296 14.336 178.752 36.448 136.192 50.688 252.16 159.68 318.4 299.2 35.712 75.2 53.568 142.688 62.208 235.008l1.088 11.392 44.672 24.992c28.96 16.192 46.912 27.296 51.072 31.616 5.984 6.24 6.4 7.328 6.4 17.248 0 13.408-5.408 23.456-15.84 29.408-3.968 2.272-20.448 8.48-36.64 13.824s-29.44 10.016-29.44 10.4c0 0.352 11.232 23.2 24.96 50.784 28 56.192 29.824 62.080 22.528 72.8-9.152 13.44-26.912 20.352-39.36 15.296-3.072-1.248-12.48-6.464-20.928-11.552-20.192-12.224-46.24-24.896-60.64-29.536l-11.584-3.744-13.376 12.352c-49.152 45.28-116.928 69.216-185.76 65.632zM703.168 797.216c43.84-7.136 84.544-29.76 111.008-61.76 16-19.328 22.88-21.536 47.744-15.232 9.248 2.336 18.784 5.024 21.184 5.92 2.4 0.928 4.352 1.344 4.352 0.928 0-0.384-5.376-11.616-11.936-24.896-10.112-20.448-11.936-25.536-11.936-32.928 0-16.16 7.040-22.784 32.832-31.104 8.224-2.656 14.944-5.28 14.944-5.856s-9.024-6.144-20.064-12.32c-32.384-18.24-32.704-18.72-34.752-56.672-10.752-197.024-121.792-376.288-285.664-461.12-72.256-37.408-139.84-54.24-226.464-56.416-54.4-1.344-95.232 2.752-140.48 14.112-19.424 4.864-43.68 12.48-45.728 14.336-0.768 0.704 3.392 2.208 9.216 3.328 14.848 2.944 48.704 13.696 68.96 21.952 44.288 18.016 104.224 56.48 112.288 72.064 4.288 8.256 3.392 26.944-1.6 33.632-6.016 8.064-12.864 10.848-31.040 12.544-37.696 3.552-67.744 15.968-96.544 39.872-9.44 7.872-28.352 29.568-28.352 32.608 0 1.216 4.576 2.432 11.872 3.104 18.688 1.728 36.256 5.984 42.912 10.4 7.872 5.184 12.288 14.464 13.056 27.392 0.48 8.032-0.128 11.392-2.816 15.68-4.864 7.776-9.664 10.4-29.536 16.096-42.784 12.256-75.424 36.352-97.76 72.224-7.584 12.16-19.552 38.304-19.616 42.912 0 1.248 3.296 1.12 10.656-0.448 16.512-3.552 42.24-4.8 49.472-2.4 18.72 6.176 29.6 29.344 20.8 44.256-1.76 2.976-9.472 10.4-17.152 16.48-52.448 41.568-74.272 98.56-64.48 168.48l1.12 8.064 19.84-18.368c31.648-29.28 53.376-46.336 85.76-67.392 63.407-41.793 138.133-72.293 218.455-86.636l3.593-0.532c13.408-2.336 15.84-2.336 23.84 0.064 10.944 3.232 21.696 13.184 22.112 20.416 0.32 5.824 0.352 5.376-1.952 27.264-0.581 5.742-0.913 12.409-0.913 19.153 0 31.527 7.244 61.362 20.158 87.931l-0.525-1.197c36.672 75.36 119.264 117.664 203.136 104.064z" />
<glyph unicode="&#xe90c;" glyph-name="React" d="M364.533 817.267c-20.856 0-40.198-4.669-57.333-14.533-53.551-30.918-73.934-106.261-63.133-200.067-86.62-37.549-141.667-92.84-141.667-154.667s55.047-117.117 141.667-154.667c-10.795-93.802 9.583-169.149 63.133-200.067 17.101-9.865 36.444-14.533 57.333-14.533 44.463 0 95.852 22.315 147.467 60.6 51.619-38.285 103.070-60.6 147.533-60.6 20.855 0 40.198 4.669 57.333 14.533 53.55 30.917 73.934 106.262 63.133 200.067 86.587 37.549 141.6 92.853 141.6 154.667 0 61.827-55.047 117.117-141.667 154.667 10.795 93.802-9.583 169.149-63.133 200.067-17.101 9.899-36.444 14.533-57.333 14.533-44.463 0-95.852-22.315-147.467-60.6-51.618 38.285-103.019 60.6-147.467 60.6zM364.533 757.533c26.68 0 61.961-14.186 100.267-40.467-22.522-21.254-44.579-45.423-65.8-72.333-34.419-4.935-66.871-12.13-96.933-21.133-0.161 2.085-0.544 4.272-0.667 6.333-3.652 60.757 9.691 106.048 35.667 121.067 7.68 4.437 16.646 6.533 27.467 6.533zM659.467 757.533c10.786 0 19.787-2.096 27.467-6.533 25.975-14.985 39.319-60.309 35.667-121.067-0.124-2.061-0.504-4.249-0.667-6.333-30.081 9.009-62.557 16.198-97 21.133-21.22 26.907-43.212 51.082-65.733 72.333 38.303 26.276 73.601 40.467 100.267 40.467zM512 679.133c9.253-8.422 18.441-17.323 27.733-27.067-9.209 0.309-18.368 0.733-27.733 0.733-9.343 0-18.48-0.425-27.667-0.733 9.284 9.733 18.422 18.653 27.667 27.067zM512 593.067c28.286 0 55.096-1.581 80.533-4.333 15.513-21.086 30.802-43.379 45.133-68.2 13.736-23.792 25.883-48.145 36.6-72.533-10.718-24.403-22.855-48.794-36.6-72.6-14.287-24.75-29.538-46.899-45-67.933-26.336-2.882-53.353-4.533-80.667-4.533-28.286 0-55.096 1.581-80.533 4.333-15.513 21.086-30.802 43.312-45.133 68.133-13.745 23.806-25.879 48.197-36.6 72.6 10.714 24.389 22.864 48.741 36.6 72.533 14.292 24.75 29.534 46.966 45 68 26.336 2.882 53.353 4.533 80.667 4.533zM674 574.6c13.542-3.27 26.561-6.799 38.8-10.733-2.773-12.529-6.164-25.298-10-38.2-4.392 8.242-8.652 16.51-13.4 24.733-4.885 8.458-10.309 16.058-15.4 24.2zM349.933 574.533c-5.074-8.117-10.464-15.702-15.333-24.133-4.747-8.224-9.009-16.49-13.4-24.733-3.845 12.929-7.291 25.713-10.067 38.267 12.463 3.938 25.45 7.425 38.8 10.6zM254.933 542c7.192-30.366 17.168-61.844 30-93.933-12.804-32.014-22.739-63.434-29.933-93.733-59.442 28.704-92.867 64.436-92.867 93.667 0 30.003 32.491 64.196 86.933 91.4 1.858 0.93 3.968 1.692 5.867 2.6zM769 541.667c59.442-28.704 92.867-64.436 92.867-93.667 0-30.003-32.491-64.196-86.933-91.4-1.858-0.93-3.968-1.692-5.867-2.6-7.196 30.384-17.091 61.891-29.933 94 12.789 31.986 22.678 63.392 29.867 93.667zM512 516.267c-37.717 0-68.267-30.549-68.267-68.267s30.549-68.267 68.267-68.267c37.717 0 68.267 30.549 68.267 68.267s-30.549 68.267-68.267 68.267zM321.2 370.333c4.394-8.245 8.717-16.507 13.467-24.733 4.88-8.452 10.248-16.063 15.333-24.2-13.542 3.27-26.561 6.799-38.8 10.733 2.775 12.537 6.16 25.289 10 38.2zM702.8 370.267c3.841-12.917 7.293-25.658 10.067-38.2-12.463-3.938-25.45-7.425-38.8-10.6 5.074 8.117 10.464 15.702 15.333 24.133 4.737 8.207 9.017 16.441 13.4 24.667zM302.067 272.4c30.081-9.009 62.557-16.198 97-21.133 21.227-26.92 43.202-51.141 65.733-72.4-38.303-26.273-73.589-40.467-100.267-40.467-10.786 0-19.787 2.163-27.467 6.6-25.975 14.985-39.319 60.243-35.667 121 0.125 2.082 0.502 4.293 0.667 6.4zM721.933 272.4c0.164-2.107 0.543-4.318 0.667-6.4 3.652-60.757-9.691-105.981-35.667-121-7.68-4.437-16.646-6.6-27.467-6.6-26.678 0-61.964 14.189-100.267 40.467 22.533 21.262 44.569 45.476 65.8 72.4 34.419 4.935 66.871 12.13 96.933 21.133zM484.267 243.933c9.209-0.309 18.368-0.733 27.733-0.733s18.525 0.424 27.733 0.733c-9.292-9.743-18.48-18.645-27.733-27.067-9.253 8.422-18.441 17.323-27.733 27.067z" />
<glyph unicode="&#xe90d;" glyph-name="Arrow" d="M725.333 405.333h-426.667c-23.564 0-42.667 19.103-42.667 42.667s19.103 42.667 42.667 42.667v0h426.667c23.564 0 42.667-19.103 42.667-42.667s-19.103-42.667-42.667-42.667v0zM512 192c-23.56 0.005-42.658 19.106-42.658 42.667 0 11.78 4.774 22.445 12.492 30.165l183.165 183.168-183.165 183.168c-7.558 7.692-12.223 18.247-12.223 29.892 0 23.562 19.1 42.662 42.662 42.662 11.645 0 22.2-4.666 29.898-12.229l213.327-213.327c7.723-7.719 12.5-18.385 12.5-30.167s-4.777-22.448-12.5-30.166l-213.334-213.334c-7.7-7.722-18.35-12.499-30.115-12.499-0.018 0-0.036 0-0.054 0h0.003z" />
<glyph unicode="&#xe90e;" glyph-name="Check" d="M512 874.667c235.264 0 426.667-191.403 426.667-426.667s-191.403-426.667-426.667-426.667-426.667 191.403-426.667 426.667 191.403 426.667 426.667 426.667zM512 960c-282.752 0-512-229.248-512-512s229.248-512 512-512 512 229.248 512 512-229.248 512-512 512zM699.435 640l-240.768-246.784-112.811 106.923-79.189-79.275 192-186.197 320 326.101-79.232 79.232z" />
<glyph unicode="&#xe90f;" glyph-name="Cross" d="M572.16 448l183.467 183.040c7.753 7.753 12.548 18.463 12.548 30.293 0 23.661-19.181 42.841-42.841 42.841-11.83 0-22.541-4.795-30.293-12.548v0l-183.040-183.467-183.040 183.467c-7.753 7.753-18.463 12.548-30.293 12.548-23.661 0-42.841-19.181-42.841-42.841 0-11.83 4.795-22.541 12.548-30.293v0l183.467-183.040-183.467-183.040c-7.795-7.733-12.621-18.45-12.621-30.293s4.826-22.56 12.618-30.291l0.003-0.003c7.733-7.795 18.45-12.621 30.293-12.621s22.56 4.826 30.291 12.618l0.003 0.003 183.040 183.467 183.040-183.467c7.733-7.795 18.45-12.621 30.293-12.621s22.56 4.826 30.291 12.618l0.003 0.003c7.795 7.733 12.621 18.45 12.621 30.293s-4.826 22.56-12.618 30.291l-0.003 0.003z" />
<glyph unicode="&#xe910;" glyph-name="Web-development" d="M56.26 946.902c-16.67-5.953-28.577-15.777-37.507-30.958l-8.335-13.991-0.893-160.744c-0.893-179.2-1.191-175.33 19.349-198.251 20.54-22.623 14.586-22.028 227.126-22.028s206.586-0.595 227.126 22.028c20.54 22.921 20.242 19.051 19.349 198.549l-0.893 161.042-8.93 14.586c-5.656 8.93-14.586 17.86-23.516 23.516l-14.586 8.93-193.786 0.595c-153.302 0.595-196.167 0-204.502-3.274zM208.074 818.009c3.274-2.977 7.144-9.823 8.037-15.181 1.786-8.93 0.298-11.312-25.898-37.805l-27.684-28.279 25.898-26.195c30.958-31.256 34.53-40.186 20.54-54.177-16.074-15.777-20.54-13.693-65.191 30.363-52.391 52.093-52.391 47.33-1.488 98.233 34.53 34.828 38.995 38.102 48.819 38.102 5.953 0 13.395-2.381 16.967-5.060zM369.712 784.967c50.902-50.902 50.902-46.14-1.488-98.233-44.651-44.056-49.116-46.14-65.191-30.363-13.991 13.991-10.419 22.921 20.54 54.177l25.898 26.195-27.684 28.279c-26.195 26.493-27.684 28.874-25.898 37.805 2.381 12.8 11.609 20.242 25.005 20.242 9.823 0 14.288-3.274 48.819-38.102zM561.414 882.009c-10.716-9.823-11.609-25.302-1.786-35.126 5.953-5.953 9.823-5.953 196.763-5.953 139.312 0 192.298-0.893 197.060-3.572 10.716-5.656 13.693-11.907 13.991-28.279v-15.777h-194.679c-137.228 0-197.358-0.893-204.205-3.274-12.205-4.465-18.456-17.86-13.991-30.363 5.953-16.967 4.167-16.967 217.898-16.967h194.977v-735.553l-7.442-7.144-7.144-7.442h-577.786v464.67l-7.442 7.144c-11.907 11.907-28.577 8.93-36.614-6.549-2.679-4.763-3.572-67.274-3.572-235.758v-229.507h-256.298l-7.144 7.442-7.442 7.144v222.065c0 163.126-0.893 223.851-3.572 228.614-8.037 15.479-24.707 18.456-36.614 6.549l-7.442-7.144v-457.228l7.144-14.884c8.335-17.86 16.67-25.898 34.53-33.935 13.395-5.953 16.967-6.251 461.395-6.251s448 0.298 461.395 6.251c17.86 8.037 26.195 16.074 34.53 33.935l7.144 14.884v416.149c0 459.312 1.488 427.163-18.753 448-5.358 5.656-14.884 12.8-21.433 16.372-11.907 6.549-13.395 6.549-208.967 7.442l-196.763 0.893-7.74-6.847zM560.819 592.967c-5.953-5.060-8.037-9.823-8.037-16.967s2.084-11.907 8.037-16.967c8.037-6.847 8.93-6.847 79.181-6.847s71.144 0 79.181 6.847c11.014 9.823 11.014 24.112 0 33.935-8.037 6.847-8.93 6.847-79.181 6.847s-71.144 0-79.181-6.847zM111.628 464.372c-4.763-4.465-7.442-10.716-7.442-16.372s2.679-11.907 7.442-16.372c7.144-7.442 8.037-7.442 55.963-7.442 55.665 0 60.428 1.786 63.405 21.433 1.488 8.93 0.595 12.205-5.656 18.456-7.74 7.74-8.037 7.74-57.153 7.74-48.521 0-49.414 0-56.558-7.442zM432.819 464.967c-5.953-5.060-8.037-9.823-8.037-16.967s2.084-11.907 8.037-16.967l8.037-6.847h398.288l8.037 6.847c11.014 9.823 11.014 24.112 0 33.935l-8.037 6.847h-398.288l-8.037-6.847zM111.628 336.372c-4.763-4.465-7.442-10.716-7.442-16.372s2.679-11.907 7.442-16.372l7.144-7.442h146.456l7.144 7.442c4.763 4.465 7.442 10.716 7.442 16.372s-2.679 11.907-7.442 16.372l-7.144 7.442h-146.456l-7.144-7.442zM432.819 336.967c-5.953-5.060-8.037-9.823-8.037-16.967s2.084-11.907 8.037-16.967l8.037-6.847h270.288l8.037 6.847c11.014 9.823 11.014 24.112 0 33.935l-8.037 6.847h-270.288l-8.037-6.847zM111.628 208.372c-4.763-4.465-7.442-10.716-7.442-16.372s2.679-11.907 7.442-16.372c7.144-7.442 8.037-7.442 55.963-7.442 55.665 0 60.428 1.786 63.405 21.433 1.488 8.93 0.595 12.205-5.656 18.456-7.74 7.74-8.037 7.74-57.153 7.74-48.521 0-49.414 0-56.558-7.442zM432.819 208.967c-5.953-5.060-8.037-9.823-8.037-16.967s2.084-11.907 8.037-16.967l8.037-6.847h336.372l7.144 7.442c4.763 4.465 7.442 10.716 7.442 16.372s-2.679 11.907-7.442 16.372l-7.144 7.442h-336.372l-8.037-6.847z" />
<glyph unicode="&#xe911;" glyph-name="Landing-page" d="M54.474 953.749c-20.837-8.037-40.484-27.981-48.223-49.116-6.251-16.372-6.251-17.563-5.656-418.828l0.893-402.456 8.93-16.074c4.763-8.633 13.991-20.242 20.242-25.898 23.516-19.944 10.419-19.051 306.902-19.051h267.907l27.386-26.791c20.242-19.944 29.172-26.791 34.828-26.791 4.465 0 16.67 5.358 27.684 12.205 10.716 6.549 19.944 11.609 20.54 11.014 0.298-0.595 2.977-10.716 5.953-22.921 8.037-33.34 7.144-33.042 66.381-33.042 60.428 0 60.428 0 67.572 30.363 2.977 11.907 5.953 22.623 7.144 23.814 0.893 1.191 10.419-3.274 21.135-9.823 10.716-6.251 22.623-11.609 26.791-11.609 10.716 0 80.372 69.656 80.372 80.372 0 4.167-5.358 16.074-11.609 26.791-6.549 10.716-11.014 20.242-9.823 21.135 1.191 1.191 11.907 4.167 23.814 7.144 30.363 7.144 30.363 7.144 30.363 67.572 0 59.237 0.298 58.344-33.042 66.381-12.205 2.977-22.326 5.656-22.921 5.953-0.595 0.595 4.465 9.823 11.014 20.54 6.847 11.014 12.205 23.219 12.205 27.684 0 5.656-6.847 14.586-26.791 34.828l-26.791 27.386v267.907c0 297.674 0.893 283.386-19.944 307.498-5.656 6.847-17.265 16.074-25.898 20.54l-15.181 8.037-403.349 0.595c-398.288 0.595-403.647 0.595-418.828-5.358zM874.865 910.884c18.456-10.716 21.135-20.54 21.135-73.526v-47.033h-854.326v42.567c0 23.219 1.488 47.033 2.977 52.986 3.572 12.205 16.372 25.6 28.577 29.47 4.763 1.488 183.665 2.381 400.074 2.084 385.488-0.595 391.74-0.595 401.563-6.549zM896 556.949v-188.726l-15.181-9.526c-8.633-5.060-16.372-8.335-17.563-6.847-1.191 1.191-3.87 9.228-5.656 17.265-5.358 22.921-8.93 30.065-16.967 33.935-4.465 2.084-25.6 3.274-52.986 3.274-56.26 0-58.047-0.893-65.786-33.34-2.977-11.907-5.656-22.326-6.251-22.921s-10.419 4.465-21.73 11.312c-11.312 6.549-22.326 12.205-24.707 12.205-2.084 0-8.335-2.679-13.693-5.953-8.93-5.358-14.884-5.953-70.549-5.953-57.153 0-61.321-0.298-66.977-5.953-8.037-8.037-7.442-19.647 1.488-28.279 6.847-7.144 8.633-7.442 46.14-7.442h39.293l-7.74-9.228c-12.8-15.181-12.502-20.837 1.191-44.353 7.144-11.609 12.205-21.433 11.609-22.028s-11.014-3.274-22.921-6.251c-32.447-7.74-33.34-9.526-33.34-65.786 0-27.386 1.191-48.521 3.274-52.986 3.87-8.037 11.014-11.609 33.935-16.967 8.335-1.786 16.074-4.465 17.265-5.656 1.488-1.191-1.786-8.93-6.847-17.563l-9.526-15.181h-258.084c-245.879 0-258.381 0.298-268.205 5.656-5.656 2.977-13.098 10.121-16.372 15.479-5.953 9.823-5.953 16.074-6.847 335.479l-0.595 325.060h854.326v-188.726zM818.605 349.172c8.037-30.958 8.93-32.447 25.005-39.888 8.335-3.87 16.967-7.144 19.349-7.144 2.084 0 13.098 5.060 24.409 11.312l20.242 11.014 17.86-17.563 17.563-17.563-11.609-22.028-11.609-21.73 5.953-15.479c3.274-8.335 7.144-16.67 8.93-18.456s12.8-5.953 24.707-9.228l21.433-5.953 0.893-25.898 0.893-25.6-8.335-1.786c-33.637-8.037-38.698-10.716-44.056-21.433-11.907-25.005-11.312-27.981 7.74-59.535l5.358-8.93-18.456-18.158-18.456-18.456-17.86 10.716c-20.54 12.205-27.981 12.8-47.33 3.87-14.288-6.847-15.777-9.823-24.409-45.544l-1.786-8.335-51.498 1.786-5.953 21.433c-3.274 11.907-7.442 22.921-9.228 24.707s-10.121 5.656-18.456 8.93l-15.181 5.953-22.028-11.907-22.028-11.609-35.126 35.721 11.312 20.242c5.953 11.312 11.014 22.326 11.014 24.409 0 2.381-3.274 11.014-7.144 19.349-7.442 16.074-8.93 16.967-39.591 25.005l-12.8 3.274v52.093l20.54 5.358c23.814 6.251 27.386 9.228 34.828 30.363l5.358 15.479-11.014 18.158c-5.953 10.419-11.014 19.647-11.014 20.837 0 2.381 33.637 36.019 36.316 36.019 1.191 0 10.121-4.763 19.944-10.716 17.86-10.716 18.456-10.716 31.851-7.144 21.135 5.953 26.791 12.205 32.447 35.721l5.060 20.837h52.688l3.274-12.502zM92.279 867.721c-12.205-12.205-3.572-35.721 13.395-35.721 9.823 0 22.326 12.502 22.326 22.326 0 10.121-9.823 19.349-20.837 19.349-5.060 0-11.609-2.679-14.884-5.953zM175.628 865.637c-7.442-9.526-5.953-20.54 3.572-28.279 18.456-16.074 44.353 8.93 29.172 28.279-4.763 5.953-8.93 8.037-16.372 8.037s-11.609-2.084-16.372-8.037zM261.953 867.721c-8.037-8.037-7.442-19.647 1.488-28.279 8.633-8.93 19.051-9.526 27.684-1.488 13.693 12.8 4.465 35.721-14.288 35.721-5.060 0-11.609-2.679-14.884-5.953zM222.363 656.372l-8.037-6.251v-243.2l-37.507-1.191c-35.126-0.893-37.805-1.191-43.163-8.037-2.977-3.87-5.656-9.823-5.656-13.693 0-5.953 139.609-209.563 155.684-226.828 9.823-11.014 23.516-9.228 33.935 4.465 13.395 16.967 145.265 206.586 149.433 214.326 4.763 9.228-0.298 22.326-10.419 27.088-4.167 1.786-22.028 3.274-39.888 3.274h-32.744v120.26c0 114.009-0.298 120.558-5.656 127.107-5.656 7.144-6.251 7.144-76.8 8.037-68.763 0.893-71.442 0.595-79.181-5.358zM342.326 496.223c0-143.777-3.274-132.167 37.805-134.549l25.005-1.488-52.391-75.312c-28.874-41.079-53.581-74.419-55.070-73.526-2.679 1.786-104.186 146.158-104.186 148.242 0 0.893 11.609 2.084 25.6 2.381 39.888 1.786 36.912-8.633 36.912 135.442v120.26h86.326v-121.451zM517.953 611.721c-8.037-8.037-7.442-19.647 1.488-28.279l7.144-7.442h135.144c131.572 0 135.144 0 141.395 5.953 8.335 7.74 8.633 21.73 0.595 29.767-5.656 5.656-9.823 5.953-142.884 5.953s-137.228-0.298-142.884-5.953zM517.953 483.721c-8.037-8.037-7.442-19.647 1.488-28.279l7.144-7.442h135.144c131.572 0 135.144 0 141.395 5.953 8.335 7.74 8.633 21.73 0.595 29.767-5.656 5.656-9.823 5.953-142.884 5.953s-137.228-0.298-142.884-5.953zM768.298 275.349c-55.367-11.609-93.767-66.977-83.647-121.153 6.549-36.912 28.279-64.893 61.916-80.67 14.288-6.847 21.135-8.037 42.27-8.037 21.433 0 27.981 1.191 43.163 8.335 23.219 10.716 43.46 30.958 54.177 53.879 7.144 15.479 8.335 22.028 8.335 43.46 0 22.623-0.893 27.684-9.823 45.247-21.433 43.758-70.251 68.465-116.391 58.94zM823.963 223.851c52.688-34.828 27.684-116.688-35.423-116.391-34.233 0.298-59.535 24.707-61.619 59.237-1.786 25.6 8.93 45.842 30.66 58.344 13.098 7.74 17.265 8.93 34.53 8.037 15.479-0.893 22.326-2.679 31.851-9.228z" />
<glyph unicode="&#xe912;" glyph-name="Design-to-code" d="M192 925.4c-9.8-3.2-26.6-20.4-29.6-30.6-1.8-6.4-2.4-70.4-2.4-270.6v-262.4l5-4.8c6.4-6.6 15.6-6.6 22 0l5 4.8v406.2h640v-406.2l5-4.8c6.4-6.6 15.6-6.6 22 0l5 4.8v262.4c0 200.2-0.6 264.2-2.4 270.6-3.2 11-19.8 27.6-30.8 30.8-11.2 3.2-628.2 3.2-638.8-0.2zM827 891c5-4.8 5-4.8 5-48v-43h-640v43c0 43.2 0 43.2 5 48l4.8 5h620.4l4.8-5zM229 859c-10-9.8-3-27 11-27 8.2 0 16 7.8 16 16s-7.8 16-16 16c-3.8 0-8-1.8-11-5zM293 859c-10-9.8-3-27 11-27 8.2 0 16 7.8 16 16s-7.8 16-16 16c-3.8 0-8-1.8-11-5zM357 859c-10-9.8-3-27 11-27 8.2 0 16 7.8 16 16s-7.8 16-16 16c-3.8 0-8-1.8-11-5zM581 859c-3.2-3-5-7.2-5-11s1.8-8 5-11l4.8-5h101.8c97 0 102.2 0.2 106.6 3.8 6.6 5.4 6.6 19 0 24.4-4.4 3.6-9.6 3.8-106.6 3.8h-101.8l-4.8-5zM64 829.4c-9.8-3.2-26.6-20.4-29.6-30.6-3.4-11.6-3.6-593.6 0-605 3.2-11 14.6-23.6 26.4-29l10.2-4.8h882l10.2 4.8c11.8 5.4 23.2 18 26.4 29 3.6 11.4 3.4 593.4 0 605-3.2 11-19.8 27.6-30.8 30.8-4.6 1.4-18.4 2.4-30.6 2.4-21 0-22.6-0.2-27.2-5-6.6-6.4-6.6-15.6 0-22 4.6-4.8 6.2-5 27-5s22.4-0.2 27-5l5-4.8v-470.2h-896v470.2l5 4.8c4.6 4.8 6.2 5 27 5s22.4 0.2 27 5c6.6 6.4 6.6 15.6 0 22-4.6 4.8-5.8 5-28.4 4.8-13-0.2-26.8-1.2-30.6-2.4zM960 245c0-43.2 0-43.2-5-48l-4.8-5h-876.4l-4.8 5c-5 4.8-5 4.8-5 48v43h896v-43zM472.6 253.6c-2.4-1.2-5.4-4.6-6.8-7.8-3-7.4 0.8-17.4 7.6-20 6.6-2.4 75.8-2.4 80.6 0.2 5 2.6 8.2 13 6 18.8-3.8 10.2-8 11.2-47 11-20.8 0-37.8-1-40.4-2.2zM550.2 700.6c-3.2-2.6-17.2-42.8-53.2-150.6-27-80.8-49-149-49-151.6 0-11.4 16.6-18.4 25.8-10.8 3.2 2.4 17.2 42.6 53.2 150.4 27 80.8 49 149 49 151.6 0 11.4-16.6 18.4-25.8 11zM326.6 597c-28.8-24.2-52.4-45.2-53.4-48-1.2-3.2-1.2-6.8 0-10 1-2.8 24.2-23.6 53.4-48 44-36.4 52.8-43 58.2-43 8.8 0 15.2 7 15.2 16.4 0 7-1.6 8.6-42.4 42.6-23.4 19.6-42.6 36.2-42.6 37s17.6 16 39 33.8c21.4 17.8 40.6 34.2 42.6 36.6 5 5.8 4.4 14.8-1.6 20.6-10 10.2-12.4 8.8-68.4-38zM629 635c-5.4-5.2-6.6-14.2-2.4-19.4 1.2-1.8 20.4-18.2 42.4-36.6 22-18.2 40-34 40-35s-18-16.8-40-35c-22-18.4-41.2-34.8-42.4-36.6-4.2-5.2-3-14.2 2.4-19.4 9.8-10 12.2-8.8 69 38.2 33.2 27.6 52.6 45.2 53.2 48 0.8 2.6 0.8 7 0 9.4-0.6 3-20.2 20.6-53.2 48-56.8 47.2-59 48.6-69 38.4zM413.8 126.2c-2.8-2.2-8.6-10-13-17.4-4.2-7.4-14.4-20.6-22.6-29.2l-14.6-15.6h-17c-9.4 0-20.6-1-24.8-2.4-11-3.2-23.6-14.6-29-26.4-4.2-8.8-4.8-13.2-4.8-33.8 0-22.4 0.2-23.8 5-28.4l4.8-5h428.4l4.8 5c4.8 4.6 5 6.2 5 27.2 0 28.8-2.2 36.2-15 48.8-12 12.2-20.2 15-42.8 15h-16.4l-10.2 9.6c-12 11-25.4 28.2-31.2 39.4-5.4 10.8-11.2 15.6-18.8 15.6-7 0-15.6-8-15.6-14.8 0-5.8 8.6-21.8 19.8-36.6l10-13.2h-207.6l10 13.2c11.2 14.8 19.8 30.8 19.8 36.6 0 5.4-7.8 13.8-14 15.2-3.6 0.8-6.8 0-10.2-2.8zM699 27c4.2-4 5-6.8 5-16v-11h-384v11c0 9.2 0.8 12 5 16l4.8 5h364.4l4.8-5z" />
<glyph unicode="&#xe913;" glyph-name="Minus" d="M196.864 488.235c-9.351-2.542-16.968-8.642-21.456-16.719l-0.090-0.177c-3.157-5.931-3.797-9.856-3.797-23.339 0-14.123 0.555-17.195 4.267-23.808 4.693-8.405 12.544-14.507 21.973-17.109 8.533-2.389 619.947-2.389 628.48 0 9.493 2.619 17.237 8.778 21.88 16.932l0.093 0.177c3.712 6.656 4.267 9.643 4.224 23.808-0.043 18.475-3.456 27.52-12.843 34.176-12.416 8.875 1.792 8.491-328.277 8.363-247.296-0.085-308.779-0.555-314.453-2.304z" />
<glyph unicode="&#xe914;" glyph-name="Plus" d="M495.531 786.901c-9.351-2.542-16.968-8.642-21.456-16.719l-0.090-0.177-3.797-7.125-0.939-272.213h-131.968c-141.056 0-140.971 0-152.875-8.491-9.472-6.741-12.885-15.744-12.885-34.176 0-14.123 0.555-17.195 4.267-23.808 4.693-8.405 12.544-14.507 21.973-17.109 3.883-1.109 55.253-1.749 138.88-1.749h132.693v-132.693c0-83.627 0.64-134.997 1.749-138.88 4.565-16.427 16.896-25.472 36.48-26.709 20.693-1.323 34.261 4.651 41.984 18.475l4.267 7.595 0.939 272.213h132.651c83.584 0 134.955 0.64 138.837 1.749 9.493 2.619 17.237 8.778 21.88 16.932l0.093 0.177c3.712 6.656 4.267 9.643 4.224 23.808-0.043 18.475-3.456 27.52-12.843 34.176-11.904 8.491-11.819 8.491-152.875 8.491h-131.968l-0.939 272.213-3.797 7.125c-2.391 4.254-5.427 7.848-9.021 10.784l-0.067 0.053c-11.264 8.064-30.763 10.624-45.397 6.059z" />
<glyph unicode="&#xe915;" glyph-name="Experience" d="M485.552 942.64c-100.448-4.48-200.768-42.272-281.424-106.032-20.768-16.416-64.272-59.648-80.224-79.696-33.517-42.033-60.837-90.88-79.473-143.82l-1.071-3.492c-39.776-115.568-36.16-236.912 10.48-351.312 13.92-34.16 36.88-75.888 40.544-73.68 1.12 0.688 7.264 4.608 13.648 8.72l11.6 7.472-3.536 5.408c-6.672 10.24-21.984 39.568-29.024 55.632-35.776 81.616-47.232 175.008-32.288 263.152 25.088 148.064 118.544 273.264 253.264 339.328 132.528 64.992 289.456 62.928 419.36-5.504 9.12-4.8 16.848-8.384 17.2-7.968 0.336 0.432 3.872 6.512 7.856 13.52 8.672 15.216 10.736 12.608-22.864 29.024-76.848 37.536-154.656 53.248-244.048 49.248zM825.728 836.832c-6.976-13.12-19.456-25.584-31.488-31.456-5.040-2.48-9.168-4.992-9.168-5.6s4.032-2.992 8.96-5.296c11.936-5.6 27.584-21.344 33.024-33.232 2.384-5.2 4.608-9.456 4.944-9.456s2.56 4.256 4.944 9.456c5.44 11.888 21.088 27.632 33.024 33.232 4.928 2.304 8.96 4.688 8.96 5.296s-4.128 3.12-9.168 5.6c-12.032 5.872-24.512 18.336-31.488 31.456-3.088 5.792-5.92 10.528-6.272 10.528s-3.184-4.736-6.272-10.528zM504.928 738.32c-2.208-1.792-10.16-15.424-17.68-30.304l-13.648-27.056-29.872-4.368c-16.416-2.4-31.568-5.296-33.664-6.432-4.928-2.688-7.296-7.264-7.296-14.128 0-4.8 3.008-8.544 23.12-28.848l23.12-23.328-5.312-30.368c-5.728-32.752-5.472-37.296 2.352-42.784 6.656-4.656 13.232-2.736 41.088 11.92l27.2 14.32 27.568-14.368c15.152-7.904 29.584-14.368 32.080-14.368 2.56 0 6.88 2.112 9.936 4.848 6.656 5.936 6.656 7.024 0.4 44.032l-4.704 27.76 22.448 21.52c23.808 22.816 26.496 27.216 22.704 37.2-2.576 6.752-8.896 8.8-41.296 13.264l-28.352 3.92-13.456 27.168c-7.392 14.944-15.28 28.624-17.52 30.4-5.216 4.128-14.048 4.128-19.216 0zM906.656 719.296l-12.208-8.592 9.12-14.016c34.816-53.536 59.184-120.608 68.656-188.96 4.080-29.488 4.048-91.968-0.064-120.32-7.936-54.56-22.416-101.792-45.12-146.992-78.016-153.378-234.679-256.625-415.456-256.625-0.242 0-0.483 0-0.725 0.001h0.037c-80.464-0.016-164.112 22.88-233.456 63.872l-13.008 7.696-7.296-11.472c-4.032-6.304-7.856-12.384-8.528-13.504-2.336-3.888 41.344-27.536 79.072-42.8 59.36-24.032 117.152-35.072 184.32-35.168 78.736-0.128 146.832 15.552 217.6 50.112 81.472 39.792 147.232 97.664 197.088 173.456 40.64 61.776 65.008 126.784 76.992 205.456 4.464 29.28 5.408 91.728 1.808 120.32-8.576 68.080-28.16 129.872-58.432 184.304-12.528 22.528-24.896 41.824-26.8 41.824-0.768 0-6.896-3.856-13.6-8.592zM535.664 652.912c1.776-0.944 11.424-2.992 21.44-4.56l18.208-2.832-14.592-14.912c-8.016-8.208-14.592-16.208-14.592-17.776s1.28-10.512 2.832-19.856c1.552-9.36 2.48-17.36 2.064-17.776-0.432-0.416-8.032 3.024-16.912 7.648s-17.504 8.432-19.152 8.464c-1.664 0.016-10.672-3.792-20.032-8.48-9.344-4.704-17.28-8.544-17.632-8.544-0.336 0 0.784 8.256 2.512 18.352 1.712 10.096 2.656 19.888 2.064 21.76s-7.232 9.744-14.784 17.488c-7.552 7.744-13.2 14.080-12.56 14.080 6.56 0 36.864 5.776 39.52 7.52 1.888 1.264 7.264 10.096 11.936 19.632l8.496 17.328 8.976-17.904c4.944-9.84 10.432-18.672 12.208-19.632zM414.112 508.448c-16.704-4.048-32.992-13.68-47.232-27.952-14.784-14.8-22.368-27.904-27.296-47.168-3.2-12.528-3.376-19.28-3.376-137.6 0-82.080 0.608-125.552 1.76-127.712 4.656-8.688-0.4-8.448 174.032-8.448s169.376-0.24 174.032 8.448c1.152 2.16 1.76 45.632 1.76 127.712 0 118.32-0.176 125.072-3.376 137.6-4.928 19.264-12.512 32.368-27.296 47.168-14.528 14.56-30.56 23.904-48.016 28.032-15.52 3.648-179.824 3.584-194.992-0.080zM487.664 477.44c-13.41-38.99-19.899-56.078-26.531-73.095l7.363 21.463c-22.688-60.192-21.792-57.168-18.848-63.776 1.312-2.928 13.76-20.304 27.664-38.592 26.912-35.344 30.176-38.16 40.144-34.352 4.704 1.792 54.464 65.952 57.664 74.336 1.984 5.232 2.272 4.32-19.616 62.384 0.731-4.446-5.758 12.642-12.102 29.801l-7.066 21.831c-0.768 2.752 1.136 2.992 23.68 2.976 13.488-0.016 29.392-0.8 35.36-1.776 22.96-3.728 42.72-18.576 53.296-40.048l5.84-11.856 0.464-117.36 0.48-117.376h-286.912l0.48 117.328 0.464 117.344 5.456 11.504c9.696 20.464 30.8 36.8 52.128 40.352 4.944 0.832 20.784 1.584 35.2 1.696 24.224 0.192 26.176-0.032 25.392-2.784zM527.024 410.032c7.76-20.896 14.080-38.576 14.048-39.312-0.096-2.176-27.488-37.92-29.072-37.92s-28.976 35.744-29.072 37.92c-0.096 2.32 28.112 77.28 29.072 77.28 0.512 0 7.264-17.088 15.024-37.968zM170.8 150.608c-5.312-11.6-22.24-28.528-33.84-33.84-4.928-2.256-8.928-4.496-8.88-4.976 0.048-0.464 4.544-2.96 10-5.552 12.656-5.984 26.176-19.504 32.16-32.16 2.592-5.456 5.104-9.952 5.616-10s3.040 4.224 5.616 9.472c6.48 13.216 19.632 26.624 31.92 32.512 5.584 2.688 10.144 5.248 10.16 5.728 0 0.464-4.928 3.408-10.96 6.528-13.455 7.249-24.145 18.136-30.959 31.347l-0.193 0.413c-2.56 5.216-5.072 9.488-5.6 9.488-0.512 0-2.768-4.032-5.040-8.96z" />
<glyph unicode="&#xe916;" glyph-name="Project-done" d="M498.336 893.248c-5.727-3.958-10.741-8.048-15.411-12.496l0.051 0.048c-43.52-40.96-108.416-76.448-167.36-91.488-62.688-16.032-118.176-15.456-183.36 1.856-43.040 11.456-48.48 11.648-57.472 2.048-10.4-11.136-10.816-13.312-10.336-53.376 2.592-205.632 48.224-377.344 132.736-499.264 43.648-62.944 99.136-117.28 166.336-162.784 32.736-22.144 61.6-38.752 104.256-59.904 46.496-23.040 41.984-23.040 88.16-0.128 43.904 21.76 63.872 33.216 100.288 57.408 132.192 87.904 216.992 205.92 262.72 365.696 25.824 90.176 39.296 189.568 40.608 299.84 0.416 35.040 0.224 37.984-3.072 44.352-4.384 8.544-15.2 14.528-26.272 14.528-4.288 0-15.84-2.304-25.664-5.12-23.328-6.688-54.656-13.024-75.456-15.264-97.696-10.624-210.176 29.28-289.152 102.528-4.681 4.486-9.817 8.575-15.308 12.168l-0.404 0.248c-3.536 1.66-7.68 2.629-12.049 2.629-5.073 0-9.842-1.306-13.987-3.6l0.149 0.075zM531.328 805.728c66.272-49.728 138.144-79.104 217.824-89.056 40.448-5.024 97.6-2.176 135.584 6.816l10.080 2.368-1.088-30.112c-2.912-81.152-16.672-170.432-36.96-239.808-50.912-174.144-151.104-291.712-321.504-377.408l-23.2-11.68-20.928 10.464c-202.048 100.672-307.648 247.040-346.848 480.768-7.488 44.829-12.867 98.206-14.935 152.432l-0.073 2.416c-0.352 11.104 0 13.088 2.144 12.448 1.408-0.448 7.936-1.92 14.496-3.296 52.128-10.848 111.712-10.56 166.4 0.736 65.28 13.536 134.976 46.272 186.752 87.776 6.496 5.184 12.128 9.472 12.512 9.472s9.248-6.464 19.744-14.336zM660.48 574.816c-3.424-1.632-43.488-40.192-93.44-89.92l-87.456-87.104-40.544 40.288c-44.96 44.672-47.936 46.72-62.080 42.496-9.312-2.816-22.72-16.224-25.536-25.536-4.384-14.624-3.424-15.904 56.224-75.872 29.696-29.888 56.864-55.808 60.352-57.6 7.648-3.968 14.688-4.16 23.136-0.64 7.808 3.232 206.656 201.568 211.264 210.688 7.104 14.144 1.376 29.312-15.296 40.544-9.376 6.336-17.184 7.104-26.624 2.656z" />
<glyph unicode="&#xe917;" glyph-name="Smile" d="M474.453 945.346l-22.187-2.511c-114.823-12.866-230.482-73.091-308.152-160.443-74.453-83.742-117.497-182.498-127.196-291.856-2.445-27.651-1.099-85.317 2.576-110.195 10.125-68.496 31.984-130.314 66.297-187.487 71.992-119.992 191.655-204.554 328.336-232.008 37.054-7.434 50.576-8.615 98.724-8.583 50.888 0.033 73.977 2.609 116.578 12.964 141.292 34.396 260.759 130.363 326.925 262.613 28.898 57.748 44.981 114.609 50.724 179.331 2.445 27.602 1.116 85.301-2.56 110.047-16.361 110.687-63.672 205.259-141.719 283.29-76.144 76.16-167.499 122.864-274.002 140.078-21.629 3.495-33.92 4.382-67.413 4.857-22.531 0.328-43.651 0.279-46.933-0.098zM575.869 876.406c71.204-11.175 136.287-38.794 194.33-82.445 23.286-17.526 57.748-50.888 75.29-72.894 65.789-82.576 100.217-186.010 95.984-288.427-1.838-44.341-7.926-78.195-21.497-119.467-30.392-92.373-90.732-171.077-173.309-226.002-38.17-25.403-94.933-49.625-139.947-59.717-36.939-8.304-55.516-10.273-96.427-10.273-39.713 0-58.667 1.92-93.013 9.436-78.769 17.214-153.616 58.453-211.692 116.644-67.446 67.545-107.815 148.48-123.093 246.712-4.578 29.391-4.135 90.076 0.886 121.173 7.549 46.884 19.577 84.792 40.336 127.147 21.251 43.356 47.819 80.377 82.708 115.282 72.353 72.336 165.497 116.217 268.029 126.277 23.27 2.281 76.439 0.476 101.415-3.446zM320.87 598.761c-16.413-5.864-29.13-18.527-34.942-34.506l-0.127-0.399c-1.378-3.889-2.494-12.915-2.494-20.070 0-10.765 0.837-14.786 4.857-23.286 9.215-19.519 28.736-32.783 51.355-32.783 15.198 0 28.998 5.989 39.168 15.735l-0.020-0.019c20.135 18.839 23.762 50.215 8.484 73.288-13.785 20.808-42.503 30.359-66.281 22.039zM661.924 599.303c-26.896-9.961-40.189-29.916-38.63-58.059 1.428-25.977 16.066-44.127 41.551-51.528 18.921-5.497 38.17-0.574 53.383 13.653 23.516 21.99 24.254 58.978 1.657 81.592-11.208 11.208-21.678 15.655-38.072 16.197-8.369 0.279-16.066-0.427-19.889-1.854zM280.747 400.328c-13.67-3.331-21.432-10.913-24.714-24.123-2.806-11.339 2.544-29.817 17.001-58.765 36.103-72.254 98.396-120.107 179.233-137.682 16.181-3.512 22.384-3.889 64-3.889 41.649 0 47.803 0.361 64 3.906 89.748 19.545 159.114 78.589 193.854 164.972 7.499 18.658 7.516 28.849 0.033 40.139-4.89 7.401-18.494 15.278-26.437 15.311-15.163 0.066-27.044-9.666-32.738-26.782-10.732-32.377-27.52-58.814-52.349-82.527-26.109-24.911-53.235-39.188-91.586-48.181-13.374-3.134-20.726-3.643-53.071-3.643-42.027 0-54.302 1.92-84.201 13.145-51.84 19.479-94.638 65.51-112.952 121.551-6.974 21.333-21.645 31.048-40.074 26.568z" />
<glyph unicode="&#xe94b;" glyph-name="Designing" d="M708 856l-104.8-104h-466.4l-2.4 78.4-2.4 77.6-24 2.4c-32 3.2-76-26.4-94.4-62.4-12.8-25.6-13.6-56-12-376 2.4-321.6 3.2-349.6 16.8-369.6 34.4-50.4 34.4-50.4 304.8-52.8l247.2-2.4-46.4-47.2c-32-32.8-44.8-50.4-39.2-56s100-7.2 272-6.4l263.2 2.4 2.4 263.2c0.8 170.4-0.8 266.4-6.4 272s-16.8-0.8-36-19.2l-28-27.2-1.6 160-2.4 159.2-125.6 4.8 48.8 51.2c26.4 28 48.8 56.8 48.8 64.8 0 17.6-73.6 91.2-92 91.2-8 0-61.6-46.4-120-104zM860 903.2c32.8-28.8 33.6-36 10.4-60.8l-17.6-18.4-68.8 67.2 17.6 18.4c22.4 23.2 24 23.2 58.4-6.4zM105.6 650.4c2.4-198.4 4-230.4 14.4-230.4s12 23.2 14.4 150.4l1.6 149.6h435.2l-47.2-48c-39.2-40-44.8-48-32.8-52.8 11.2-4 39.2 19.2 120 100l105.6 104.8 33.6-34.4 33.6-33.6-312-312-33.6 33.6-33.6 34.4 30.4 31.2c21.6 22.4 29.6 36 25.6 45.6-4.8 12-12 7.2-48.8-28.8-36-35.2-47.2-53.6-68-112.8-25.6-69.6-25.6-70.4-55.2-72.8-19.2-1.6-28.8-6.4-28.8-14.4 0-10.4 29.6-12 216-12 199.2 0 216 0.8 218.4 14.4 2.4 12.8-8.8 13.6-148 14.4h-150.4l40 16c32 12.8 70.4 46.4 196 172l156 155.2h132v-324l-109.6-109.6c-87.2-87.2-108-112-100-120s37.6 17.6 145.6 125.6l136 136v-65.6c0-61.6-0.8-65.6-17.6-68-10.4-1.6-18.4-8-18.4-14.4s8-12.8 18.4-14.4c25.6-4 24.8-38.4-2.4-44.8-26.4-6.4-26.4-28.8 0-28.8 16.8 0 20-4 20-23.2 0-18.4-4-24-17.6-26.4-10.4-1.6-18.4-8-18.4-14.4s8-12.8 18.4-14.4c12.8-1.6 17.6-8 17.6-21.6s-4.8-20-17.6-21.6c-10.4-1.6-18.4-8-18.4-14.4s8-12.8 18.4-14.4c15.2-2.4 17.6-7.2 17.6-38.4v-35.2h-460l78.4 78.4c42.4 42.4 77.6 82.4 77.6 88 0 18.4-20.8 9.6-52-22.4l-32-32.8-525.6 4.8-23.2 26.4c-44 48.8-23.2 109.6 44.8 132.8l32 11.2v63.2c0 50.4-2.4 62.4-12 62.4-8.8 0-12.8-12-14.4-52l-3.2-52-70.4-33.6v287.2c0 299.2 0.8 308.8 35.2 336 36 29.6 36.8 28 38.4-215.2zM818.4 790.4c-12.8-14.4-14.4-13.6-48 19.2-32 31.2-33.6 34.4-20.8 48 12.8 14.4 14.4 13.6 48-19.2 32-31.2 33.6-34.4 20.8-48zM420 456c20-20.8 21.6-25.6 12-32-30.4-19.2-61.6 1.6-52.8 36 6.4 25.6 12.8 25.6 40.8-4zM807.2 154.4c-48-48-87.2-91.2-87.2-96.8 0-7.2 26.4-9.6 96-9.6h96v91.2c0 57.6-3.2 93.6-8.8 97.6-4.8 2.4-47.2-33.6-96-82.4zM884.8 83.2c-3.2-8-20-11.2-58.4-11.2h-53.6l111.2 112.8 2.4-45.6c1.6-24.8 0.8-50.4-1.6-56z" />
<glyph unicode="&#xe94c;" glyph-name="Faq" d="M634.4 884.8c-102.4-33.6-176.8-112.8-202.4-214.4l-9.6-36.8-36.8 12c-58.4 17.6-154.4 10.4-211.2-16.8-129.6-61.6-200.8-212.8-162.4-345.6 15.2-53.6 36-89.6 74.4-132.8 30.4-33.6 29.6-47.2-3.2-86.4-12-13.6-19.2-31.2-17.6-41.6 2.4-16.8 7.2-18.4 50.4-20.8 66.4-3.2 96 3.2 126.4 29.6 20 17.6 36.8 23.2 74.4 27.2 74.4 8 132.8 32.8 184 79.2 44 40.8 84 105.6 95.2 156.8 2.4 13.6 6.4 25.6 8 25.6s24-5.6 49.6-12c24.8-6.4 58.4-12 72.8-12 19.2 0 36-7.2 54.4-24 31.2-27.2 60-33.6 127.2-30.4 43.2 2.4 48 4 50.4 20.8 1.6 10.4-5.6 28-17.6 41.6-32.8 39.2-33.6 52.8-3.2 86.4 38.4 43.2 59.2 79.2 74.4 132.8 38.4 132.8-32.8 284-162.4 345.6-55.2 26.4-159.2 34.4-215.2 16zM829.6 811.2c51.2-24.8 100.8-79.2 117.6-128.8 17.6-52 16-134.4-3.2-176.8-8-18.4-33.6-52.8-56-76.8-43.2-45.6-47.2-60.8-28.8-104.8 6.4-15.2 10.4-28 8-28-16 0-58.4 25.6-68.8 41.6-12 18.4-20 20.8-80 24-141.6 8-234.4 100.8-233.6 234.4 0.8 180.8 182.4 294.4 344.8 215.2zM389.6 580c28-11.2 33.6-17.6 38.4-42.4 8.8-46.4 41.6-106.4 81.6-146.4l36-37.6-9.6-44.8c-11.2-56.8-50.4-113.6-99.2-146.4-47.2-32-82.4-42.4-146.4-42.4-44.8 0-51.2-2.4-64-20.8-11.2-17.6-52.8-43.2-69.6-43.2-2.4 0 1.6 12.8 8 28 18.4 44 14.4 59.2-28.8 104.8-53.6 56.8-72 97.6-72 164 0 65.6 16.8 116 52.8 157.6 68.8 80.8 176.8 108 272.8 69.6zM663.2 753.6c-30.4-27.2-36.8-77.6-12.8-92.8 12-7.2 17.6-5.6 28 9.6 39.2 53.6 40 53.6 55.2 44.8 23.2-14.4 21.6-35.2-5.6-63.2-32-32.8-42.4-89.6-20-108 17.6-14.4 39.2-1.6 42.4 25.6 1.6 10.4 14.4 32.8 29.6 50.4 23.2 25.6 28 36.8 28 67.2-0.8 79.2-86.4 118.4-144.8 66.4zM701.6 498.4c-12-12-4.8-41.6 11.2-46.4 22.4-7.2 42.4 12.8 35.2 35.2-4.8 16-34.4 23.2-46.4 11.2zM157.6 379.2c-20-20 6.4-56 34.4-47.2 25.6 8 19.2 47.2-8 50.4-11.2 1.6-23.2 0-26.4-3.2zM277.6 379.2c-20-20 6.4-56 34.4-47.2 25.6 8 19.2 47.2-8 50.4-11.2 1.6-23.2 0-26.4-3.2zM397.6 379.2c-20-20 6.4-56 34.4-47.2 25.6 8 19.2 47.2-8 50.4-11.2 1.6-23.2 0-26.4-3.2z" />
<glyph unicode="&#xe94d;" glyph-name="Frontend" d="M3.2 925.6c-1.6-5.6-2.4-59.2-1.6-118.4l2.4-107.2h1016v232l-506.4 2.4c-411.2 1.6-507.2 0-510.4-8.8zM984 816v-80h-944v160h944v-80zM835.2 878.4c-17.6-8-35.2-37.6-35.2-59.2 0-7.2 11.2-23.2 24-36.8 19.2-19.2 29.6-23.2 46.4-20 12 2.4 28 0 36-6.4 27.2-19.2 51.2 3.2 28 26.4-5.6 5.6-8.8 22.4-7.2 37.6 4 49.6-45.6 81.6-92 58.4zM875.2 843.2c16.8-6.4 16-32-0.8-38.4-7.2-3.2-18.4 0-24.8 6.4-10.4 9.6-10.4 14.4-1.6 24 11.2 14.4 10.4 14.4 27.2 8zM189.6 788.8c-10.4-26.4 13.6-28.8 231.2-27.2 208.8 2.4 215.2 3.2 215.2 18.4s-6.4 16-220.8 18.4c-187.2 1.6-222.4 0-225.6-9.6zM683.2 788c-5.6-14.4 2.4-28 16.8-28 12 0 19.2 15.2 14.4 30.4-4.8 13.6-25.6 12-31.2-2.4zM4.8 651.2c-7.2-18.4-5.6-397.6 1.6-409.6 5.6-7.2 75.2-9.6 322.4-8l315.2 2.4v424l-316.8 2.4c-284 1.6-317.6 0.8-322.4-11.2zM608 468c0-85.6-1.6-156-3.2-156-0.8 0-36 44.8-77.6 100-44 58.4-80.8 99.2-88.8 100-8 0-38.4-32.8-75.2-81.6-34.4-45.6-63.2-84-64.8-86.4-2.4-2.4-12.8 7.2-24 20-56.8 67.2-82.4 91.2-92 87.2-5.6-2.4-37.6-36-70.4-75.2s-62.4-71.2-65.6-71.2c-4-0.8-6.4 71.2-6.4 159.2v160h568v-156zM452.8 442.4c16.8-21.6 13.6-26.4-16.8-26.4-31.2 0-33.6 4-14.4 25.6 16 17.6 18.4 17.6 31.2 0.8zM258.4 290.4c-11.2-17.6-17.6-18.4-96-18.4-95.2 0-93.6-5.6-23.2 75.2l48.8 54.4 40.8-46.4c39.2-44 40.8-47.2 29.6-64.8zM533.6 334.4c17.6-23.2 34.4-47.2 37.6-52 4.8-8-24.8-10.4-135.2-10.4h-140.8l16.8 24c15.2 21.6 20.8 23.2 74.4 25.6 51.2 2.4 57.6 4 57.6 18.4 0 13.6-6.4 16-37.6 18.4-64.8 4-42.4 17.6 28.8 17.6h67.2l31.2-41.6zM228 580c-43.2-42.4-12.8-116 48-116 61.6 0 91.2 71.2 47.2 115.2-28 28-68.8 28-95.2 0.8zM300 532c0-21.6-2.4-24-24-24-16.8 0-24.8 4-26.4 14.4-4.8 26.4 4.8 39.2 28 36 19.2-2.4 22.4-6.4 22.4-26.4zM684 654.4c-2.4-6.4-3.2-102.4-2.4-214.4l2.4-204h336v424l-166.4 2.4c-129.6 1.6-167.2 0-169.6-8zM984 448v-176h-264v352h264v-176zM747.2 580c-9.6-24 5.6-28 100-28 68.8 0 97.6 3.2 104 10.4 18.4 22.4-7.2 29.6-104.8 29.6-76 0-96-2.4-99.2-12zM747.2 500c-9.6-24 5.6-28 100-28 68.8 0 97.6 3.2 104 10.4 18.4 22.4-7.2 29.6-104.8 29.6-76 0-96-2.4-99.2-12zM747.2 420c-9.6-24 5.6-28 100-28 68.8 0 97.6 3.2 104 10.4 18.4 22.4-7.2 29.6-104.8 29.6-76 0-96-2.4-99.2-12zM747.2 340c-3.2-7.2-1.6-16.8 3.2-21.6 12-12 35.2-0.8 32 15.2-3.2 18.4-28.8 23.2-35.2 6.4zM825.6 342.4c-18.4-18.4 5.6-30.4 61.6-30.4 56.8 0 79.2 10.4 64 29.6-11.2 13.6-112 14.4-125.6 0.8zM4.8 187.2c-6.4-16-6.4-198.4 0-214.4 4-11.2 27.2-12.8 171.2-12.8s167.2 1.6 171.2 12.8c6.4 16 6.4 198.4 0 214.4-4 11.2-27.2 12.8-171.2 12.8s-167.2-1.6-171.2-12.8zM312 80v-80h-272v160h272v-80zM380.8 187.2c-7.2-18.4-5.6-205.6 1.6-217.6 5.6-7.2 75.2-9.6 322.4-8l315.2 2.4v232l-316.8 2.4c-284 1.6-317.6 0.8-322.4-11.2zM984 80v-80h-568v160h568v-80zM472 80.8c0-19.2 20-27.2 32-12.8s4 28-16.8 28c-9.6 0-15.2-5.6-15.2-15.2zM552 80.8c0-8 5.6-17.6 12.8-20 16-6.4 326.4-6.4 342.4 0 7.2 2.4 12.8 12 12.8 20 0 14.4-8.8 15.2-184 15.2s-184-0.8-184-15.2z" />
<glyph unicode="&#xe94e;" glyph-name="Home" d="M249.6 734.4c-124.8-124.8-232-236.8-239.2-249.6-25.6-48.8 7.2-111.2 66.4-125.6l35.2-8.8v-166.4c0-159.2 0.8-166.4 18.4-192.8 29.6-44.8 60.8-55.2 164-55.2 49.6 0 97.6 4 106.4 8 14.4 8 15.2 18.4 15.2 147.2 0 169.6-2.4 164.8 96.8 164.8 102.4 0 98.4 5.6 101.6-160.8 1.6-81.6 6.4-143.2 11.2-148.8 5.6-7.2 35.2-10.4 99.2-10.4 109.6 0 146.4 12 172.8 55.2 17.6 27.2 18.4 38.4 20.8 194.4l3.2 166.4 30.4 8c60 16 89.6 80 60.8 134.4-14.4 25.6-433.6 444-458.4 456.8-9.6 4.8-31.2 8.8-47.2 8.8-29.6 0-40.8-9.6-257.6-225.6zM745.6 682.4c122.4-122.4 222.4-226.4 222.4-232 0-19.2-25.6-34.4-59.2-34.4-18.4 0-37.6-4-43.2-9.6-7.2-7.2-9.6-60.8-9.6-190.4 0-227.2 5.6-216-104.8-216h-79.2v119.2c0 109.6-1.6 120.8-18.4 145.6-28 41.6-62.4 55.2-141.6 55.2-80.8 0-115.2-14.4-140-56-13.6-24-16-44.8-18.4-146.4l-3.2-117.6h-72.8c-40.8 0-77.6 3.2-83.2 6.4-21.6 13.6-26.4 55.2-26.4 225.6 0 193.6 2.4 184-55.2 184-33.6 0-48.8 11.2-48.8 36 0 19.2 429.6 452 448 452 6.4 0 112-100 233.6-221.6z" />
<glyph unicode="&#xe952;" glyph-name="Javascript" d="M724.8 488c-48-14.4-84.8-66.4-84.8-119.2 0-69.6 25.6-102.4 115.2-145.6 34.4-16.8 69.6-36.8 77.6-44 35.2-32 4.8-75.2-52.8-75.2-29.6 0-41.6 4.8-65.6 27.2l-30.4 27.2-75.2-43.2 14.4-21.6c60.8-92.8 238.4-104 299.2-18.4 13.6 19.2 17.6 36 17.6 77.6 0 73.6-20 98.4-122.4 148.8-68 33.6-77.6 40.8-80 60.8-4 30.4 11.2 45.6 44 45.6 19.2 0 32.8-5.6 44.8-19.2l16.8-19.2 34.4 23.2c19.2 13.6 34.4 27.2 34.4 30.4 0 12.8-40.8 49.6-68 61.6-30.4 12-83.2 13.6-119.2 3.2zM462.4 309.6c-2.4-197.6-4.8-205.6-50.4-205.6-20 0-32 6.4-45.6 23.2l-18.4 23.2-37.6-21.6c-21.6-11.2-38.4-24.8-38.4-29.6 0-16.8 59.2-67.2 87.2-75.2 72.8-20 150.4 4 180.8 56 14.4 25.6 16 44.8 18.4 218.4l2.4 189.6h-96l-2.4-178.4z" />
<glyph unicode="&#xe953;" glyph-name="Mysql" d="M13.6 937.6c-8-8.8-13.6-28-13.6-47.2 0-26.4 7.2-42.4 36.8-81.6 22.4-29.6 46.4-75.2 60-115.2 12.8-36 34.4-82.4 47.2-103.2 22.4-36.8 22.4-38.4 11.2-80-12.8-50.4-14.4-149.6-2.4-193.6 29.6-108 116.8-134.4 131.2-39.2l5.6 38.4 12-24c18.4-35.2 46.4-66.4 100-113.6 59.2-52.8 74.4-54.4 30.4-4-38.4 43.2-96 136.8-121.6 199.2-9.6 23.2-20 42.4-23.2 42.4-15.2 0-40.8-52.8-49.6-100.8-11.2-58.4-17.6-58.4-42.4 1.6-17.6 40.8-17.6 139.2 0 186.4 18.4 49.6 16 69.6-11.2 103.2-12.8 16.8-34.4 61.6-48 100.8-15.2 45.6-36 87.2-60 119.2-35.2 48-44 72-28 81.6 9.6 6.4 88-28.8 117.6-52 13.6-10.4 32.8-16 55.2-16 60 0 136-37.6 225.6-111.2 63.2-52 116.8-133.6 180.8-272.8 33.6-72.8 67.2-137.6 75.2-145.6 7.2-7.2 37.6-22.4 67.2-33.6 29.6-10.4 79.2-37.6 111.2-60l57.6-40.8h-34.4c-40.8 0-128-23.2-128-33.6 0-35.2 61.6-93.6 140.8-132.8 27.2-13.6 60-33.6 72.8-44.8 27.2-22.4 34.4-25.6 34.4-12 0 18.4-70.4 89.6-122.4 124-63.2 42.4-62.4 45.6 18.4 59.2 71.2 12 78.4 16.8 61.6 43.2-22.4 33.6-109.6 98.4-176.8 130.4-60.8 29.6-63.2 32-90.4 85.6-15.2 30.4-41.6 86.4-57.6 124.8-55.2 125.6-138.4 226.4-248 299.2-62.4 41.6-102.4 57.6-163.2 65.6-23.2 3.2-52 13.6-65.6 24-57.6 43.2-140.8 57.6-166.4 28.8z" />
<glyph unicode="&#xe9d4;" glyph-name="Php" d="M316 688c-158.4-34.4-263.2-94.4-303.2-173.6-17.6-35.2-16-100 2.4-137.6 34.4-67.2 136.8-128.8 268.8-162.4 62.4-16 92-18.4 228-18.4s165.6 2.4 228 18.4c132 33.6 234.4 95.2 268.8 162.4 20 40 20 102.4 0 142.4-34.4 66.4-136 128.8-264.8 161.6-100 25.6-326.4 29.6-428 7.2zM695.2 643.2c168.8-34.4 283.2-113.6 283.2-194.4 0-132-274.4-233.6-557.6-208-70.4 6.4-215.2 39.2-227.2 51.2-1.6 0.8 0.8 16.8 5.6 34.4l8.8 31.2 56.8 4.8c70.4 5.6 101.6 23.2 125.6 69.6 24.8 48.8 23.2 81.6-5.6 113.6-23.2 26.4-24.8 26.4-94.4 26.4h-70.4l-32-120c-17.6-65.6-34.4-124-36-129.6-2.4-6.4-17.6 0-42.4 18.4-47.2 34.4-73.6 86.4-66.4 127.2 7.2 35.2 62.4 92.8 116 119.2 52.8 27.2 165.6 59.2 240.8 68 76.8 9.6 217.6 4 295.2-12zM352 520c19.2-19.2 20-33.6 4-67.2-15.2-31.2-34.4-44-80-50.4-59.2-8-60.8-4.8-42.4 68.8l16 64.8h43.2c32.8 0 47.2-4 59.2-16zM476 632c-3.2-4.8-15.2-61.6-27.2-128-23.2-123.2-21.6-151.2 5.6-136.8 10.4 5.6 17.6 26.4 24.8 70.4 16.8 104 13.6 98.4 56 98.4 20.8 0 44.8-4.8 52.8-11.2 14.4-10.4 14.4-12.8 0.8-76.8-12-55.2-12.8-67.2-4-76.8 18.4-17.6 32-0.8 44 53.6 16.8 79.2 14.4 100.8-12 128-20.8 20-29.6 23.2-68.8 23.2h-45.6l5.6 24.8c4 17.6 2.4 27.2-4.8 32-14.4 8.8-20.8 8.8-27.2-0.8zM704.8 558.4c-3.2-10.4-20-73.6-36.8-140.8-21.6-87.2-28-124.8-21.6-131.2 15.2-15.2 32.8 0 42.4 36l8.8 35.2 59.2 4.8c48 3.2 65.6 8.8 88 25.6 35.2 26.4 51.2 58.4 51.2 100 0 66.4-31.2 88-124 88-55.2 0-60.8-1.6-67.2-17.6zM827.2 528c11.2-4 22.4-16 25.6-27.2 6.4-26.4-16.8-72-41.6-84-20.8-8.8-99.2-12.8-99.2-4 0 5.6 23.2 98.4 28 113.6 4 11.2 58.4 12.8 87.2 1.6z" />
<glyph unicode="&#xe9d5;" glyph-name="Project" d="M16 448v-496h864v448.8l64 76c53.6 63.2 64 80 64 104 0 53.6-68 95.2-112 67.2-8-4.8-13.6-4-16 4-2.4 5.6-64.8 74.4-138.4 151.2l-135.2 140.8h-590.4v-496zM584 776v-136h264v-19.2c0-13.6-51.2-79.2-169.6-219.2l-170.4-200.8-36-88.8c-20-49.6-36.8-92.8-38.4-96.8-8.8-24 31.2-9.6 108 38.4 78.4 48.8 96 64 166.4 146.4 43.2 50.4 92.8 107.2 109.6 125.6l30.4 34.4v-376h-800v928h536v-136zM823.2 670.4c0.8-4-45.6-6.4-103.2-6.4h-104v228l104-108c56.8-59.2 103.2-110.4 103.2-113.6zM961.6 610.4c20.8-19.2 17.6-50.4-10.4-80.8l-24-26.4-21.6 15.2c-12 8.8-28 22.4-35.2 31.2-13.6 14.4-12.8 16.8 10.4 44.8 27.2 32.8 56 38.4 80.8 16zM890.4 489.6c13.6-15.2 10.4-19.2-126.4-180.8-77.6-90.4-143.2-164.8-144.8-164.8-8 0-67.2 51.2-67.2 57.6 0 4 63.2 80.8 140.8 170.4l140 164 21.6-15.2c12-8 28-22.4 36-31.2zM592 123.2c0-4.8-100-66.4-102.4-63.2-1.6 1.6 6.4 28 18.4 59.2l22.4 56 30.4-24.8c17.6-13.6 31.2-26.4 31.2-27.2zM272 843.2c-4.8-11.2-8-23.2-8-27.2 0-12-38.4-16-60-6.4-18.4 8-23.2 7.2-42.4-12-18.4-19.2-20-24-11.2-38.4 16.8-26.4 4.8-61.6-20.8-64.8-20-2.4-21.6-5.6-21.6-38.4s1.6-36 21.6-38.4c28-3.2 41.6-37.6 24-64-11.2-16.8-10.4-20 10.4-41.6 21.6-22.4 23.2-23.2 44.8-10.4 20 12 23.2 12 41.6 0 11.2-7.2 21.6-21.6 23.2-31.2 2.4-16 7.2-18.4 34.4-18.4 28.8 0 32 2.4 36 23.2 5.6 32 41.6 44.8 64.8 24 15.2-13.6 16.8-13.6 40 10.4 24 23.2 24.8 24.8 12 44-18.4 28-5.6 60 24.8 64 20 2.4 22.4 5.6 24.8 36.8 2.4 32 1.6 34.4-22.4 39.2-32.8 6.4-45.6 35.2-27.2 63.2 12.8 18.4 12.8 20.8-4.8 39.2-20.8 22.4-32.8 24.8-55.2 10.4-20-12-56.8 3.2-56.8 24s-16 33.6-41.6 33.6c-16.8 0-24.8-4.8-30.4-20.8zM318.4 809.6c1.6-12 14.4-22.4 39.2-33.6 34.4-15.2 37.6-15.2 52-3.2 19.2 17.6 28 8 14.4-16-8.8-17.6-8-24.8 7.2-56 12-26.4 21.6-36.8 33.6-36.8 20.8 0 16-19.2-5.6-22.4-22.4-3.2-47.2-66.4-35.2-89.6 12-22.4 6.4-28-16-16-12.8 7.2-24 6.4-51.2-4-28-11.2-36-18.4-40-37.6-4.8-24.8-20.8-24-20.8 2.4 0 10.4-12 20.8-36.8 32-31.2 15.2-38.4 16-56 7.2-24-13.6-33.6-4.8-16 15.2 12 13.6 12 16.8-2.4 50.4-9.6 22.4-21.6 37.6-32 40.8-22.4 5.6-21.6 18.4 1.6 24.8 11.2 2.4 22.4 16.8 32.8 40.8 13.6 34.4 13.6 37.6 1.6 51.2-18.4 20-1.6 31.2 19.2 12.8 11.2-9.6 17.6-11.2 29.6-4.8 8 4.8 24 12 36.8 16.8 16 5.6 21.6 12.8 21.6 28.8 0 24.8 18.4 22.4 22.4-3.2zM254.4 728c-69.6-53.6-33.6-160 52.8-160 85.6 0 122.4 107.2 55.2 160-27.2 21.6-81.6 21.6-108 0zM351.2 691.2c9.6-12 16.8-30.4 16.8-40.8 0-25.6-33.6-58.4-60-58.4-28.8 0-60 33.6-60 64 0 53.6 70.4 77.6 103.2 35.2zM128 356c0-10.4 21.6-12 165.6-10.4 123.2 1.6 165.6 4.8 168.8 12.8 2.4 7.2-34.4 9.6-165.6 9.6-145.6 0-168.8-1.6-168.8-12zM133.6 267.2c-3.2-3.2-5.6-10.4-5.6-16.8 0-8.8 28.8-10.4 154.4-8.8 130.4 2.4 153.6 4 153.6 14.4s-22.4 12-148.8 14.4c-81.6 0.8-150.4-0.8-153.6-3.2zM129.6 154.4c2.4-12.8 16-14.4 132.8-16.8 125.6-1.6 129.6-1.6 129.6 14.4 0 15.2-4.8 16-132.8 16-121.6 0-132-0.8-129.6-13.6z" />
<glyph unicode="&#xe9db;" glyph-name="Services" d="M383.2 902.4c-32-21.6-63.2-78.4-63.2-116 0-33.6 17.6-76.8 44-108 22.4-26.4 27.2-70.4 8-70.4-13.6 0-87.2-140.8-80-152 3.2-4.8 17.6-8 32.8-8h27.2v-100c0-93.6-0.8-100-15.2-100-10.4 0-16.8 6.4-18.4 18.4-2.4 16.8-6.4 17.6-76.8 20-69.6 2.4-75.2 0.8-79.2-13.6-3.2-14.4-12-16.8-65.6-18.4l-60.8-2.4v-248l60.8-2.4c53.6-1.6 62.4-4 65.6-18.4 4-14.4 9.6-16 79.2-13.6 70.4 2.4 74.4 3.2 76.8 20 2.4 17.6 3.2 17.6 26.4 5.6 20-9.6 51.2-12 173.6-9.6l149.6 2.4 150.4 87.2c82.4 47.2 153.6 92.8 157.6 100.8 13.6 25.6 8.8 60-10.4 78.4-10.4 9.6-23.2 17.6-28 17.6-7.2 0-9.6 25.6-9.6 88v88h27.2c15.2 0 29.6 3.2 32.8 8 2.4 4-12 39.2-31.2 78.4-25.6 50.4-41.6 73.6-54.4 77.6l-18.4 5.6 20 5.6c18.4 4.8 20 9.6 20 48.8s-1.6 44-20 48c-13.6 3.2-16.8 6.4-9.6 11.2 16 9.6 11.2 30.4-12 54.4-22.4 24-45.6 28.8-55.2 12.8-4.8-7.2-8-4-11.2 9.6-4 18.4-8.8 20-48 20s-44-1.6-48-20c-3.2-13.6-6.4-16.8-11.2-9.6-9.6 16-32.8 11.2-55.2-12.8-23.2-24-28-44.8-12-54.4 7.2-4.8 4-8-9.6-11.2-18.4-4-20-8.8-20-48 0-40 1.6-44 18.4-46.4 35.2-5.6 8-17.6-39.2-17.6s-47.2 0-47.2 23.2c0 13.6 8.8 33.6 20 47.2 46.4 55.2 55.2 112 26.4 169.6-18.4 35.2-64.8 75.2-81.6 69.6-4.8-1.6-10.4-31.2-12.8-65.6-3.2-48-7.2-64-17.6-71.2-10.4-6.4-18.4-6.4-28 0-11.2 7.2-15.2 23.2-18.4 71.2-2.4 34.4-8 64-12.8 65.6s-20.8-5.6-36-15.2zM432 754.4l32-20.8 32 21.6c31.2 20.8 32 21.6 32 69.6 0 44 1.6 48 12.8 38.4 35.2-28.8 45.6-92 20.8-128-43.2-64.8-49.6-77.6-49.6-100.8 0-20.8-3.2-26.4-15.2-26.4-12.8 0-16 6.4-18.4 30.4-1.6 20-6.4 29.6-14.4 29.6s-12.8-9.6-14.4-29.6c-2.4-24-5.6-30.4-18.4-30.4-12 0-15.2 5.6-15.2 26.4 0 23.2-6.4 36-49.6 100.8-24 35.2-17.6 84.8 16.8 124 12 13.6 12.8 12 15.2-34.4 2.4-47.2 3.2-49.6 33.6-70.4zM785.6 774.4c3.2-31.2 24-39.2 47.2-17.6 12 10.4 17.6 12 24.8 4.8s5.6-12.8-4.8-24.8c-21.6-23.2-13.6-44 17.6-47.2 18.4-1.6 25.6-6.4 25.6-17.6s-7.2-16-25.6-17.6c-23.2-2.4-26.4-5.6-26.4-24 0.8-20-2.4-22.4-25.6-22.4h-25.6l19.2 20c26.4 25.6 26.4 62.4 0 88-12 12.8-28.8 20-44 20-56 0-84-68.8-44-108l19.2-20h-25.6c-23.2 0-26.4 2.4-25.6 22.4 0 18.4-3.2 21.6-25.6 24-19.2 1.6-26.4 6.4-26.4 17.6s7.2 16 25.6 17.6c31.2 3.2 39.2 24 17.6 47.2-10.4 12-12 17.6-4.8 24.8s12.8 5.6 24.8-4.8c23.2-21.6 44-13.6 47.2 17.6 1.6 18.4 6.4 25.6 17.6 25.6s16-7.2 17.6-25.6zM792 692c20.8-25.6-10.4-64.8-37.6-47.2-28 17.6-18.4 59.2 13.6 59.2 8 0 18.4-5.6 24-12zM592 528l-24-48h-240l48 96h240l-24-48zM928 528l24-48h-240l-48 96h240l24-48zM620.8 226.4c-1.6-1.6-44.8 8-96 20.8-57.6 15.2-101.6 22.4-116.8 19.2l-24-4v185.6h200l18.4 36.8 17.6 36.8 2.4-145.6c0.8-80.8 0.8-148-1.6-149.6zM796 448h100v-180.8l-80.8-46.4c-73.6-42.4-81.6-44.8-94.4-33.6-8 7.2-25.6 15.2-39.2 17.6l-25.6 5.6v156.8l0.8 156.8 20-37.6 19.2-38.4h100zM288 128v-128h-96v256h96v-128zM562.4 204c146.4-38.4 149.6-39.2 149.6-63.2 0-36-19.2-36.8-130.4-7.2-72 18.4-106.4 24.8-112.8 18.4-14.4-14.4 6.4-24.8 112-52 119.2-30.4 144.8-28 159.2 18.4 6.4 21.6 20.8 34.4 90.4 74.4 62.4 36.8 87.2 47.2 102.4 44 27.2-7.2 25.6-39.2-2.4-59.2-12.8-8-80-48-150.4-88l-128.8-73.6h-138.4c-110.4 0-144 2.4-165.6 12.8l-27.2 12.8v172l54.4 12.8c29.6 6.4 59.2 10.4 65.6 9.6 6.4-1.6 61.6-16 122.4-32zM160 128v-96h-96v192h96v-96z" />
<glyph unicode="&#xe9dc;" glyph-name="Skill" d="M160 951.2c-64.8-20-63.2-36 9.6-108.8l58.4-58.4-26.4-25.6-25.6-26.4-59.2 59.2c-64 64-80.8 68.8-100.8 28.8-19.2-37.6-16-136 5.6-176.8 42.4-80.8 108.8-124 195.2-127.2 45.6-1.6 51.2-4 81.6-34.4l32.8-33.6-120-121.6-120-122.4-46.4-118.4c-45.6-116-49.6-137.6-24.8-146.4 6.4-2.4 64.8 16 129.6 41.6l118.4 46.4 122.4 120 121.6 120 33.6-32.8c30.4-30.4 32.8-36 34.4-81.6 3.2-86.4 46.4-152.8 127.2-195.2 40.8-21.6 139.2-24.8 176.8-5.6 40 20 35.2 36.8-28.8 100.8l-59.2 59.2 26.4 25.6 25.6 26.4 59.2-59.2c64-64 80.8-68.8 100.8-28.8 19.2 37.6 16 136-5.6 176.8-42.4 80.8-108.8 124-195.2 127.2-45.6 1.6-51.2 4-81.6 35.2l-33.6 32.8 166.4 166.4c91.2 91.2 165.6 171.2 165.6 177.6 0 16-152.8 168-168 168-6.4 0-86.4-74.4-177.6-165.6l-166.4-166.4-32.8 33.6c-31.2 30.4-33.6 36-35.2 81.6-4.8 117.6-92 207.2-208 213.6-26.4 1.6-60.8-0.8-76-5.6zM318.4 867.2c45.6-36.8 66.4-84.8 64-145.6l-2.4-49.6 178.4-177.6 177.6-178.4 49.6 2.4c94.4 4 166.4-53.6 172.8-140l3.2-46.4-51.2 50.4c-28 27.2-56 49.6-62.4 49.6-15.2 0-120-104-120-119.2 0-7.2 22.4-35.2 50.4-63.2l49.6-51.2-46.4 3.2c-86.4 6.4-144 78.4-140 172.8l2.4 49.6-178.4 177.6-177.6 178.4-49.6-2.4c-94.4-4-166.4 53.6-172.8 140l-3.2 46.4 51.2-49.6c28-28 56-50.4 62.4-50.4 15.2 0 120 104 120 119.2 0 7.2-22.4 35.2-49.6 63.2l-50.4 51.2 46.4-3.2c35.2-3.2 52.8-8.8 76-27.2zM904 748l-48-48-45.6 46.4-46.4 45.6 48 48 47.2 48 46.4-45.6 46.4-46.4-48-48zM732 576l-84-84-45.6 46.4-46.4 45.6 168 168 92-92-84-84zM424 356l44-44-212-212-45.6 46.4-46.4 45.6 104 104c56.8 56.8 105.6 104 108 104s24-20 48-44zM200 67.2c0-4-106.4-43.2-109.6-40.8-1.6 2.4 6.4 28 18.4 57.6l21.6 52.8 34.4-33.6c19.2-19.2 35.2-35.2 35.2-36z" />
</font>
</defs>
</svg>
